# File units = meters
mtllib vent.mtl
g vent
v -0.0983869 -0.105156 0.058801 
v -0.0983869 -0.112854 0.075311 
v -0.0526535 -0.112854 0.075311 
v -0.0526535 -0.105156 0.058801 
v -0.0526535 -0.129839 0.075311 
v -0.0983869 -0.129839 0.075311 
v -0.0526535 -0.129839 0.053467 
v -0.0526535 -0.105156 0.053467 
v -0.0983869 -0.129839 0.053467 
v -0.0983869 -0.105156 0.053467 
v -0.0534155 -0.129077 0.053467 
v -0.0534155 -0.105918 0.053467 
v -0.0976249 -0.129077 0.053467 
v -0.0976249 -0.105918 0.053467 
v -0.0976249 -0.129077 0.074549 
v -0.0534155 -0.129077 0.074549 
v -0.0534155 -0.11334 0.074549 
v -0.0534155 -0.105918 0.0586321 
v -0.0976249 -0.105918 0.0586321 
v -0.0976249 -0.11334 0.074549 
vn 0 0.906308 0.422618 
vn 0 0 1 
vn 1 0 0 
vn -1 0 0 
vn 0 -1 0 
vn 0 1 0 
vn 0 0 -1 
vn -1 0 0 
vn 1 0 0 
vn 0 -0.906308 -0.422618 
vn 0 0 -1 
vn 0 -1 0 
usemtl 0.498039_0.498039_0.498039_0.000000_0.000000
o mesh0
f 1//1 2//1 3//1 
f 3//1 4//1 1//1 
o mesh1
f 5//2 3//2 2//2 
f 2//2 6//2 5//2 
o mesh2
f 7//3 4//3 3//3 
f 7//3 8//3 4//3 
f 3//3 5//3 7//3 
o mesh3
f 9//4 6//4 2//4 
f 2//4 1//4 9//4 
f 1//4 10//4 9//4 
o mesh4
f 7//5 5//5 6//5 
f 6//5 9//5 7//5 
o mesh5
f 10//6 1//6 4//6 
f 4//6 8//6 10//6 
o mesh6
f 7//7 11//7 12//7 
f 7//7 9//7 13//7 
f 13//7 11//7 7//7 
f 9//7 10//7 14//7 
f 10//7 8//7 12//7 
f 14//7 13//7 9//7 
f 12//7 8//7 7//7 
f 12//7 14//7 10//7 
o mesh7
f 13//6 15//6 16//6 
f 16//6 11//6 13//6 
o mesh8
f 11//8 16//8 17//8 
f 17//8 18//8 11//8 
f 18//8 12//8 11//8 
o mesh9
f 13//9 19//9 20//9 
f 13//9 14//9 19//9 
f 20//9 15//9 13//9 
o mesh10
f 18//10 17//10 20//10 
f 20//10 19//10 18//10 
o mesh11
f 15//11 20//11 17//11 
f 17//11 16//11 15//11 
o mesh12
f 12//12 18//12 19//12 
f 19//12 14//12 12//12 
