# File units = meters
mtllib floor.mtl
g Part 41
v 0.470173 -0.133629 -0.001016 
v 0.157753 -0.133629 -0.001016 
v 0.157753 -0.133629 -0.00127 
v 0.470173 -0.133629 -0.00127 
v 0.157753 0.117953 -0.001016 
v 0.157753 0.117953 -0.00127 
v -0.173447 0.117953 -0.001016 
v -0.173447 0.117953 -0.00127 
v 0.470173 0.417927 -0.001016 
v -0.173447 0.417927 -0.001016 
v -0.173447 0.417927 -0.00127 
v 0.470173 0.417927 -0.00127 
vn 0 -1 0 
vn -1 0 0 
vn 0 0 1 
vn 0 0 -1 
vn -1 0 0 
vn 1 0 0 
vn 0 1 0 
usemtl 0.345098_0.094118_0.019608_0.000000_0.000000
o mesh0
f 1//1 2//1 3//1 
f 3//1 4//1 1//1 
o mesh1
f 3//2 2//2 5//2 
f 5//2 6//2 3//2 
o mesh2
f 7//1 8//1 6//1 
f 6//1 5//1 7//1 
o mesh3
f 1//3 9//3 5//3 
f 10//3 7//3 5//3 
f 5//3 9//3 10//3 
f 5//3 2//3 1//3 
o mesh4
f 11//4 12//4 6//4 
f 4//4 3//4 6//4 
f 6//4 12//4 4//4 
f 6//4 8//4 11//4 
o mesh5
f 11//5 8//5 7//5 
f 7//5 10//5 11//5 
o mesh6
f 12//6 9//6 1//6 
f 1//6 4//6 12//6 
o mesh7
f 11//7 10//7 9//7 
f 9//7 12//7 11//7 
