# File units = meters
mtllib glass_0515.mtl
g Part 9
v 0.00415284 -0.00998578 0.001524 
v 0.00412425 -0.0101602 0.001524 
v 0.00407696 -0.0103305 0.001524 
v 0.00401155 -0.0104947 0.001524 
v 0.00392877 -0.0106508 0.001524 
v 0.00382958 -0.0107971 0.001524 
v 0.00371517 -0.0109318 0.001524 
v 0.00358686 -0.0110533 0.001524 
v 0.00344617 -0.0111603 0.001524 
v 0.00329473 -0.0112514 0.001524 
v 0.00313433 -0.0113256 0.001524 
v 0.00296685 -0.011382 0.001524 
v 0.00279425 -0.01142 0.001524 
v 0.00261855 -0.0114391 0.001524 
v 0.00244182 -0.0114391 0.001524 
v 0.00226612 -0.01142 0.001524 
v 0.00209352 -0.011382 0.001524 
v 0.00192604 -0.0113256 0.001524 
v 0.00176564 -0.0112514 0.001524 
v 0.0016142 -0.0111603 0.001524 
v 0.00147351 -0.0110533 0.001524 
v 0.0013452 -0.0109318 0.001524 
v 0.00123078 -0.0107971 0.001524 
v 0.0011316 -0.0106508 0.001524 
v 0.00104882 -0.0104947 0.001524 
v 0.000983403 -0.0103305 0.001524 
v 0.000936121 -0.0101602 0.001524 
v 0.000907529 -0.00998578 0.001524 
v 0.000897961 -0.00980931 0.001524 
v 0.000907529 -0.00963283 0.001524 
v 0.000936121 -0.00945843 0.001524 
v 0.000983403 -0.00928814 0.001524 
v 0.00104882 -0.00912396 0.001524 
v 0.0011316 -0.00896781 0.001524 
v 0.00123078 -0.00882153 0.001524 
v 0.0013452 -0.00868683 0.001524 
v 0.00147351 -0.00856529 0.001524 
v 0.0016142 -0.00845834 0.001524 
v 0.00176564 -0.00836722 0.001524 
v 0.00192604 -0.00829301 0.001524 
v 0.00209352 -0.00823658 0.001524 
v 0.00226612 -0.00819859 0.001524 
v 0.00244182 -0.00817948 0.001524 
v 0.00261855 -0.00817948 0.001524 
v 0.00279425 -0.00819859 0.001524 
v 0.00296685 -0.00823658 0.001524 
v 0.00313433 -0.00829301 0.001524 
v 0.00329473 -0.00836722 0.001524 
v 0.00344617 -0.00845834 0.001524 
v 0.00358686 -0.00856529 0.001524 
v 0.00371517 -0.00868683 0.001524 
v 0.00382958 -0.00882153 0.001524 
v 0.00392877 -0.00896781 0.001524 
v 0.00401155 -0.00912396 0.001524 
v 0.00407696 -0.00928814 0.001524 
v 0.00412425 -0.00945843 0.001524 
v 0.00415284 -0.00963283 0.001524 
v 0.00416241 -0.00980931 0.001524 
v 0.00253018 -0.00980931 0.001524 
v 0.000897961 -0.00980931 0.0075946 
v 0.000907529 -0.00963283 0.0075946 
v 0.000936121 -0.00945843 0.0075946 
v 0.000983403 -0.00928814 0.0075946 
v 0.00104882 -0.00912396 0.0075946 
v 0.0011316 -0.00896781 0.0075946 
v 0.00123078 -0.00882153 0.0075946 
v 0.0013452 -0.00868683 0.0075946 
v 0.00147351 -0.00856529 0.0075946 
v 0.0016142 -0.00845834 0.0075946 
v 0.00176564 -0.00836722 0.0075946 
v 0.00192604 -0.00829301 0.0075946 
v 0.00209352 -0.00823658 0.0075946 
v 0.00226612 -0.00819859 0.0075946 
v 0.00244182 -0.00817948 0.0075946 
v 0.00261855 -0.00817948 0.0075946 
v 0.00279425 -0.00819859 0.0075946 
v 0.00296685 -0.00823658 0.0075946 
v 0.00313433 -0.00829301 0.0075946 
v 0.00329473 -0.00836722 0.0075946 
v 0.00344617 -0.00845834 0.0075946 
v 0.00358686 -0.00856529 0.0075946 
v 0.00371517 -0.00868683 0.0075946 
v 0.00382958 -0.00882153 0.0075946 
v 0.00392877 -0.00896781 0.0075946 
v 0.00401155 -0.00912396 0.0075946 
v 0.00407696 -0.00928814 0.0075946 
v 0.00412425 -0.00945843 0.0075946 
v 0.00415284 -0.00963283 0.0075946 
v 0.00416241 -0.00980931 0.0075946 
v 0.00415284 -0.00998578 0.0075946 
v 0.00412425 -0.0101602 0.0075946 
v 0.00407696 -0.0103305 0.0075946 
v 0.00401155 -0.0104947 0.0075946 
v 0.00392877 -0.0106508 0.0075946 
v 0.00382958 -0.0107971 0.0075946 
v 0.00371517 -0.0109318 0.0075946 
v 0.00358686 -0.0110533 0.0075946 
v 0.00344617 -0.0111603 0.0075946 
v 0.00329473 -0.0112514 0.0075946 
v 0.00313433 -0.0113256 0.0075946 
v 0.00296685 -0.011382 0.0075946 
v 0.00279425 -0.01142 0.0075946 
v 0.00261855 -0.0114391 0.0075946 
v 0.00244182 -0.0114391 0.0075946 
v 0.00226612 -0.01142 0.0075946 
v 0.00209352 -0.011382 0.0075946 
v 0.00192604 -0.0113256 0.0075946 
v 0.00176564 -0.0112514 0.0075946 
v 0.0016142 -0.0111603 0.0075946 
v 0.00147351 -0.0110533 0.0075946 
v 0.0013452 -0.0109318 0.0075946 
v 0.00123078 -0.0107971 0.0075946 
v 0.0011316 -0.0106508 0.0075946 
v 0.00104882 -0.0104947 0.0075946 
v 0.000983403 -0.0103305 0.0075946 
v 0.000936121 -0.0101602 0.0075946 
v 0.000907529 -0.00998578 0.0075946 
v 0.00365369 -0.00895524 0.0075946 
v 0.00373945 -0.00908172 0.0075946 
v 0.00355477 -0.00883877 0.0075946 
v 0.00344383 -0.00873369 0.0075946 
v 0.00332218 -0.00864121 0.0075946 
v 0.00319124 -0.00856243 0.0075946 
v 0.00230186 -0.00841662 0.0075946 
v 0.00245378 -0.0084001 0.0075946 
v 0.00215263 -0.00844947 0.0075946 
v 0.00305255 -0.00849826 0.0075946 
v 0.00290774 -0.00844947 0.0075946 
v 0.0027585 -0.00841662 0.0075946 
v 0.00260659 -0.0084001 0.0075946 
v 0.00140667 -0.00895524 0.0075946 
v 0.0015056 -0.00883877 0.0075946 
v 0.00132092 -0.00908172 0.0075946 
v 0.00200782 -0.00849826 0.0075946 
v 0.00186913 -0.00856243 0.0075946 
v 0.00161654 -0.00873369 0.0075946 
v 0.00173819 -0.00864121 0.0075946 
v 0.00124934 -0.00921673 0.0075946 
v 0.00390847 -0.00950593 0.0075946 
v 0.00393319 -0.00965672 0.0075946 
v 0.00386759 -0.00935869 0.0075946 
v 0.00381103 -0.00921673 0.0075946 
v 0.00119278 -0.00935869 0.0075946 
v 0.0011519 -0.00950593 0.0075946 
v 0.00230186 -0.011202 0.0075946 
v 0.00215263 -0.0111691 0.0075946 
v 0.00245378 -0.0112185 0.0075946 
v 0.00112718 -0.00965672 0.0075946 
v 0.0011189 -0.00980931 0.0075946 
v 0.00112718 -0.0099619 0.0075946 
v 0.0011519 -0.0101127 0.0075946 
v 0.00119278 -0.0102599 0.0075946 
v 0.00124934 -0.0104019 0.0075946 
v 0.00132092 -0.0105369 0.0075946 
v 0.00140667 -0.0106634 0.0075946 
v 0.00260659 -0.0112185 0.0075946 
v 0.0027585 -0.011202 0.0075946 
v 0.00290774 -0.0111691 0.0075946 
v 0.00332218 -0.0109774 0.0075946 
v 0.00344383 -0.0108849 0.0075946 
v 0.00305255 -0.0111204 0.0075946 
v 0.00319124 -0.0110562 0.0075946 
v 0.00355477 -0.0107798 0.0075946 
v 0.0015056 -0.0107798 0.0075946 
v 0.00161654 -0.0108849 0.0075946 
v 0.00186913 -0.0110562 0.0075946 
v 0.00173819 -0.0109774 0.0075946 
v 0.00200782 -0.0111204 0.0075946 
v 0.00365369 -0.0106634 0.0075946 
v 0.00373945 -0.0105369 0.0075946 
v 0.00381103 -0.0104019 0.0075946 
v 0.00386759 -0.0102599 0.0075946 
v 0.00390847 -0.0101127 0.0075946 
v 0.00393319 -0.0099619 0.0075946 
v 0.00394146 -0.00980931 0.0075946 
v 0.00394146 -0.00980931 0.0018034 
v 0.00393319 -0.0099619 0.0018034 
v 0.00390847 -0.0101127 0.0018034 
v 0.00386759 -0.0102599 0.0018034 
v 0.00381103 -0.0104019 0.0018034 
v 0.00373945 -0.0105369 0.0018034 
v 0.00365369 -0.0106634 0.0018034 
v 0.00355477 -0.0107798 0.0018034 
v 0.00344383 -0.0108849 0.0018034 
v 0.00332218 -0.0109774 0.0018034 
v 0.00319124 -0.0110562 0.0018034 
v 0.00305255 -0.0111204 0.0018034 
v 0.00290774 -0.0111691 0.0018034 
v 0.0027585 -0.011202 0.0018034 
v 0.00260659 -0.0112185 0.0018034 
v 0.00245378 -0.0112185 0.0018034 
v 0.00230186 -0.011202 0.0018034 
v 0.00215263 -0.0111691 0.0018034 
v 0.00200782 -0.0111204 0.0018034 
v 0.00186913 -0.0110562 0.0018034 
v 0.00173819 -0.0109774 0.0018034 
v 0.00161654 -0.0108849 0.0018034 
v 0.0015056 -0.0107798 0.0018034 
v 0.00140667 -0.0106634 0.0018034 
v 0.00132092 -0.0105369 0.0018034 
v 0.00124934 -0.0104019 0.0018034 
v 0.00119278 -0.0102599 0.0018034 
v 0.0011519 -0.0101127 0.0018034 
v 0.00112718 -0.0099619 0.0018034 
v 0.0011189 -0.00980931 0.0018034 
v 0.00112718 -0.00965672 0.0018034 
v 0.0011519 -0.00950593 0.0018034 
v 0.00119278 -0.00935869 0.0018034 
v 0.00124934 -0.00921673 0.0018034 
v 0.00132092 -0.00908172 0.0018034 
v 0.00140667 -0.00895524 0.0018034 
v 0.0015056 -0.00883877 0.0018034 
v 0.00161654 -0.00873369 0.0018034 
v 0.00173819 -0.00864121 0.0018034 
v 0.00186913 -0.00856243 0.0018034 
v 0.00200782 -0.00849826 0.0018034 
v 0.00215263 -0.00844947 0.0018034 
v 0.00230186 -0.00841662 0.0018034 
v 0.00245378 -0.0084001 0.0018034 
v 0.00260659 -0.0084001 0.0018034 
v 0.0027585 -0.00841662 0.0018034 
v 0.00290774 -0.00844947 0.0018034 
v 0.00305255 -0.00849826 0.0018034 
v 0.00319124 -0.00856243 0.0018034 
v 0.00332218 -0.00864121 0.0018034 
v 0.00344383 -0.00873369 0.0018034 
v 0.00355477 -0.00883877 0.0018034 
v 0.00365369 -0.00895524 0.0018034 
v 0.00373945 -0.00908172 0.0018034 
v 0.00381103 -0.00921673 0.0018034 
v 0.00386759 -0.00935869 0.0018034 
v 0.00390847 -0.00950593 0.0018034 
v 0.00393319 -0.00965672 0.0018034 
v 0.00253018 -0.00980931 0.0018034 
vn 0 0 -1 
vn -1 0 0 
vn -0.994138 0.108119 0 
vn -0.976621 0.21497 0 
vn -0.947653 0.319302 0 
vn -0.907575 0.419889 0 
vn -0.856857 0.515554 0 
vn -0.796093 0.605174 0 
vn -0.725995 0.687699 0 
vn -0.647386 0.762162 0 
vn -0.561187 0.827689 0 
vn -0.468408 0.883512 0 
vn -0.370138 0.928977 0 
vn -0.267528 0.96355 0 
vn -0.161782 0.986827 0 
vn -0.0541389 0.998533 0 
vn 0.0541389 0.998533 0 
vn 0.161782 0.986827 0 
vn 0.267528 0.96355 0 
vn 0.370138 0.928977 0 
vn 0.468408 0.883512 0 
vn 0.561187 0.827689 0 
vn 0.647386 0.762162 0 
vn 0.725995 0.687699 0 
vn 0.796093 0.605174 0 
vn 0.856857 0.515554 0 
vn 0.907575 0.419889 0 
vn 0.947653 0.319302 0 
vn 0.976621 0.21497 0 
vn 0.994138 0.108119 0 
vn 1 1.22465e-16 0 
vn 0.994138 -0.108119 0 
vn 0.976621 -0.21497 0 
vn 0.947653 -0.319302 0 
vn 0.907575 -0.419889 0 
vn 0.856857 -0.515554 0 
vn 0.796093 -0.605174 0 
vn 0.725995 -0.687699 0 
vn 0.647386 -0.762162 0 
vn 0.561187 -0.827689 0 
vn 0.468408 -0.883512 0 
vn 0.370138 -0.928977 0 
vn 0.267528 -0.96355 0 
vn 0.161782 -0.986827 0 
vn 0.0541389 -0.998533 0 
vn -0.0541389 -0.998533 0 
vn -0.161782 -0.986827 0 
vn -0.267528 -0.96355 0 
vn -0.370138 -0.928977 0 
vn -0.468408 -0.883512 0 
vn -0.561187 -0.827689 0 
vn -0.647386 -0.762162 0 
vn -0.725995 -0.687699 0 
vn -0.796093 -0.605174 0 
vn -0.856857 -0.515554 0 
vn -0.907575 -0.419889 0 
vn -0.947653 -0.319302 0 
vn -0.976621 -0.21497 0 
vn -0.994138 -0.108119 0 
vn 0 0 1 
vn -0.994138 0.108119 0 
vn -1 2.44929e-16 0 
vn -0.976621 0.21497 0 
vn -0.994138 0.108119 0 
vn -0.947653 0.319302 0 
vn -0.976621 0.21497 0 
vn -0.907575 0.419889 0 
vn -0.947653 0.319302 0 
vn -0.856857 0.515554 0 
vn -0.907575 0.419889 0 
vn -0.796093 0.605174 0 
vn -0.856857 0.515554 0 
vn -0.725995 0.687699 0 
vn -0.796093 0.605174 0 
vn -0.647386 0.762162 0 
vn -0.725995 0.687699 0 
vn -0.561187 0.827689 0 
vn -0.647386 0.762162 0 
vn -0.468408 0.883512 0 
vn -0.561187 0.827689 0 
vn -0.370138 0.928977 0 
vn -0.468408 0.883512 0 
vn -0.267528 0.96355 0 
vn -0.370138 0.928977 0 
vn -0.161782 0.986827 0 
vn -0.267528 0.96355 0 
vn -0.0541389 0.998533 0 
vn -0.161782 0.986827 0 
vn 0.0541389 0.998533 0 
vn -0.0541389 0.998533 0 
vn 0.161782 0.986827 0 
vn 0.0541389 0.998533 0 
vn 0.267528 0.96355 0 
vn 0.161782 0.986827 0 
vn 0.370138 0.928977 0 
vn 0.267528 0.96355 0 
vn 0.468408 0.883512 0 
vn 0.370138 0.928977 0 
vn 0.561187 0.827689 0 
vn 0.468408 0.883512 0 
vn 0.647386 0.762162 0 
vn 0.561187 0.827689 0 
vn 0.725995 0.687699 0 
vn 0.647386 0.762162 0 
vn 0.796093 0.605174 0 
vn 0.725995 0.687699 0 
vn 0.856857 0.515554 0 
vn 0.796093 0.605174 0 
vn 0.907575 0.419889 0 
vn 0.856857 0.515554 0 
vn 0.947653 0.319302 0 
vn 0.907575 0.419889 0 
vn 0.976621 0.21497 0 
vn 0.947653 0.319302 0 
vn 0.994138 0.108119 0 
vn 0.976621 0.21497 0 
vn 1 -1.22465e-16 0 
vn 0.994138 0.108119 0 
vn 0.994138 -0.108119 0 
vn 1 -1.22465e-16 0 
vn 0.976621 -0.21497 0 
vn 0.994138 -0.108119 0 
vn 0.947653 -0.319302 0 
vn 0.976621 -0.21497 0 
vn 0.907575 -0.419889 0 
vn 0.947653 -0.319302 0 
vn 0.856857 -0.515554 0 
vn 0.907575 -0.419889 0 
vn 0.796093 -0.605174 0 
vn 0.856857 -0.515554 0 
vn 0.725995 -0.687699 0 
vn 0.796093 -0.605174 0 
vn 0.647386 -0.762162 0 
vn 0.725995 -0.687699 0 
vn 0.561187 -0.827689 0 
vn 0.647386 -0.762162 0 
vn 0.468408 -0.883512 0 
vn 0.561187 -0.827689 0 
vn 0.370138 -0.928977 0 
vn 0.468408 -0.883512 0 
vn 0.267528 -0.96355 0 
vn 0.370138 -0.928977 0 
vn 0.161782 -0.986827 0 
vn 0.267528 -0.96355 0 
vn 0.0541389 -0.998533 0 
vn 0.161782 -0.986827 0 
vn -0.0541389 -0.998533 0 
vn 0.0541389 -0.998533 0 
vn -0.161782 -0.986827 0 
vn -0.0541389 -0.998533 0 
vn -0.267528 -0.96355 0 
vn -0.161782 -0.986827 0 
vn -0.370138 -0.928977 0 
vn -0.267528 -0.96355 0 
vn -0.468408 -0.883512 0 
vn -0.370138 -0.928977 0 
vn -0.561187 -0.827689 0 
vn -0.468408 -0.883512 0 
vn -0.647386 -0.762162 0 
vn -0.561187 -0.827689 0 
vn -0.725995 -0.687699 0 
vn -0.647386 -0.762162 0 
vn -0.796093 -0.605174 0 
vn -0.725995 -0.687699 0 
vn -0.856857 -0.515554 0 
vn -0.796093 -0.605174 0 
vn -0.907575 -0.419889 0 
vn -0.856857 -0.515554 0 
vn -0.947653 -0.319302 0 
vn -0.907575 -0.419889 0 
vn -0.976621 -0.21497 0 
vn -0.947653 -0.319302 0 
vn -0.994138 -0.108119 0 
vn -0.976621 -0.21497 0 
vn 0 0 1 
usemtl 0.615686_0.811765_0.929412_0.000000_0.392157
o mesh0
f 59//1 1//1 2//1 
f 2//1 3//1 59//1 
f 3//1 4//1 59//1 
f 4//1 5//1 59//1 
f 5//1 6//1 59//1 
f 6//1 7//1 59//1 
f 7//1 8//1 59//1 
f 8//1 9//1 59//1 
f 9//1 10//1 59//1 
f 10//1 11//1 59//1 
f 11//1 12//1 59//1 
f 12//1 13//1 59//1 
f 13//1 14//1 59//1 
f 14//1 15//1 59//1 
f 15//1 16//1 59//1 
f 16//1 17//1 59//1 
f 17//1 18//1 59//1 
f 18//1 19//1 59//1 
f 19//1 20//1 59//1 
f 20//1 21//1 59//1 
f 21//1 22//1 59//1 
f 22//1 23//1 59//1 
f 23//1 24//1 59//1 
f 24//1 25//1 59//1 
f 25//1 26//1 59//1 
f 26//1 27//1 59//1 
f 27//1 28//1 59//1 
f 28//1 29//1 59//1 
f 29//1 30//1 59//1 
f 30//1 31//1 59//1 
f 31//1 32//1 59//1 
f 32//1 33//1 59//1 
f 33//1 34//1 59//1 
f 34//1 35//1 59//1 
f 35//1 36//1 59//1 
f 36//1 37//1 59//1 
f 37//1 38//1 59//1 
f 38//1 39//1 59//1 
f 39//1 40//1 59//1 
f 40//1 41//1 59//1 
f 41//1 42//1 59//1 
f 42//1 43//1 59//1 
f 43//1 44//1 59//1 
f 44//1 45//1 59//1 
f 45//1 46//1 59//1 
f 46//1 47//1 59//1 
f 47//1 48//1 59//1 
f 48//1 49//1 59//1 
f 49//1 50//1 59//1 
f 50//1 51//1 59//1 
f 51//1 52//1 59//1 
f 52//1 53//1 59//1 
f 53//1 54//1 59//1 
f 54//1 55//1 59//1 
f 55//1 56//1 59//1 
f 56//1 57//1 59//1 
f 57//1 58//1 59//1 
f 58//1 1//1 59//1 
o mesh1
f 29//2 60//2 61//3 
f 30//3 61//3 62//4 
f 31//4 62//4 63//5 
f 32//5 63//5 64//6 
f 33//6 64//6 65//7 
f 34//7 65//7 66//8 
f 35//8 66//8 67//9 
f 36//9 67//9 68//10 
f 37//10 68//10 69//11 
f 38//11 69//11 70//12 
f 39//12 70//12 71//13 
f 40//13 71//13 72//14 
f 41//14 72//14 73//15 
f 42//15 73//15 74//16 
f 43//16 74//16 75//17 
f 44//17 75//17 76//18 
f 45//18 76//18 77//19 
f 46//19 77//19 78//20 
f 47//20 78//20 79//21 
f 48//21 79//21 80//22 
f 49//22 80//22 81//23 
f 50//23 81//23 82//24 
f 51//24 82//24 83//25 
f 52//25 83//25 84//26 
f 53//26 84//26 85//27 
f 54//27 85//27 86//28 
f 55//28 86//28 87//29 
f 56//29 87//29 88//30 
f 57//30 88//30 89//31 
f 58//31 89//31 90//32 
f 1//32 90//32 91//33 
f 2//33 91//33 92//34 
f 3//34 92//34 93//35 
f 4//35 93//35 94//36 
f 5//36 94//36 95//37 
f 6//37 95//37 96//38 
f 7//38 96//38 97//39 
f 8//39 97//39 98//40 
f 9//40 98//40 99//41 
f 10//41 99//41 100//42 
f 11//42 100//42 101//43 
f 12//43 101//43 102//44 
f 13//44 102//44 103//45 
f 14//45 103//45 104//46 
f 15//46 104//46 105//47 
f 16//47 105//47 106//48 
f 17//48 106//48 107//49 
f 18//49 107//49 108//50 
f 19//50 108//50 109//51 
f 20//51 109//51 110//52 
f 21//52 110//52 111//53 
f 22//53 111//53 112//54 
f 23//54 112//54 113//55 
f 24//55 113//55 114//56 
f 25//56 114//56 115//57 
f 26//57 115//57 116//58 
f 27//58 116//58 117//59 
f 28//59 117//59 60//2 
f 60//2 29//2 28//59 
f 117//59 28//59 27//58 
f 116//58 27//58 26//57 
f 115//57 26//57 25//56 
f 114//56 25//56 24//55 
f 113//55 24//55 23//54 
f 112//54 23//54 22//53 
f 111//53 22//53 21//52 
f 110//52 21//52 20//51 
f 109//51 20//51 19//50 
f 108//50 19//50 18//49 
f 107//49 18//49 17//48 
f 106//48 17//48 16//47 
f 105//47 16//47 15//46 
f 104//46 15//46 14//45 
f 103//45 14//45 13//44 
f 102//44 13//44 12//43 
f 101//43 12//43 11//42 
f 100//42 11//42 10//41 
f 99//41 10//41 9//40 
f 98//40 9//40 8//39 
f 97//39 8//39 7//38 
f 96//38 7//38 6//37 
f 95//37 6//37 5//36 
f 94//36 5//36 4//35 
f 93//35 4//35 3//34 
f 92//34 3//34 2//33 
f 91//33 2//33 1//32 
f 90//32 1//32 58//31 
f 89//31 58//31 57//30 
f 88//30 57//30 56//29 
f 87//29 56//29 55//28 
f 86//28 55//28 54//27 
f 85//27 54//27 53//26 
f 84//26 53//26 52//25 
f 83//25 52//25 51//24 
f 82//24 51//24 50//23 
f 81//23 50//23 49//22 
f 80//22 49//22 48//21 
f 79//21 48//21 47//20 
f 78//20 47//20 46//19 
f 77//19 46//19 45//18 
f 76//18 45//18 44//17 
f 75//17 44//17 43//16 
f 74//16 43//16 42//15 
f 73//15 42//15 41//14 
f 72//14 41//14 40//13 
f 71//13 40//13 39//12 
f 70//12 39//12 38//11 
f 69//11 38//11 37//10 
f 68//10 37//10 36//9 
f 67//9 36//9 35//8 
f 66//8 35//8 34//7 
f 65//7 34//7 33//6 
f 64//6 33//6 32//5 
f 63//5 32//5 31//4 
f 62//4 31//4 30//3 
f 61//3 30//3 29//2 
o mesh2
f 83//60 118//60 119//60 
f 82//60 120//60 118//60 
f 118//60 83//60 82//60 
f 82//60 81//60 121//60 
f 80//60 122//60 121//60 
f 79//60 123//60 122//60 
f 73//60 124//60 125//60 
f 73//60 72//60 126//60 
f 121//60 120//60 82//60 
f 122//60 80//60 79//60 
f 78//60 127//60 123//60 
f 77//60 128//60 127//60 
f 76//60 129//60 128//60 
f 76//60 75//60 130//60 
f 75//60 74//60 125//60 
f 126//60 124//60 73//60 
f 66//60 131//60 132//60 
f 65//60 133//60 131//60 
f 121//60 81//60 80//60 
f 127//60 78//60 77//60 
f 130//60 129//60 76//60 
f 125//60 74//60 73//60 
f 71//60 134//60 126//60 
f 71//60 70//60 135//60 
f 68//60 136//60 137//60 
f 67//60 132//60 136//60 
f 131//60 66//60 65//60 
f 65//60 64//60 138//60 
f 87//60 139//60 140//60 
f 86//60 141//60 139//60 
f 85//60 142//60 141//60 
f 85//60 84//60 119//60 
f 123//60 79//60 78//60 
f 125//60 130//60 75//60 
f 135//60 134//60 71//60 
f 70//60 69//60 137//60 
f 136//60 68//60 67//60 
f 138//60 133//60 65//60 
f 64//60 63//60 143//60 
f 63//60 62//60 144//60 
f 105//60 145//60 146//60 
f 105//60 104//60 147//60 
f 139//60 87//60 86//60 
f 119//60 142//60 85//60 
f 128//60 77//60 76//60 
f 137//60 135//60 70//60 
f 132//60 67//60 66//60 
f 144//60 143//60 63//60 
f 61//60 148//60 144//60 
f 61//60 60//60 149//60 
f 117//60 150//60 149//60 
f 117//60 116//60 151//60 
f 115//60 152//60 151//60 
f 114//60 153//60 152//60 
f 113//60 154//60 153//60 
f 113//60 112//60 155//60 
f 147//60 145//60 105//60 
f 104//60 103//60 156//60 
f 102//60 157//60 156//60 
f 102//60 101//60 158//60 
f 99//60 98//60 159//60 
f 98//60 97//60 160//60 
f 89//60 88//60 140//60 
f 141//60 86//60 85//60 
f 126//60 72//60 71//60 
f 143//60 138//60 64//60 
f 149//60 148//60 61//60 
f 151//60 150//60 117//60 
f 152//60 115//60 114//60 
f 155//60 154//60 113//60 
f 156//60 147//60 104//60 
f 158//60 157//60 102//60 
f 101//60 100//60 161//60 
f 100//60 99//60 162//60 
f 160//60 159//60 98//60 
f 96//60 163//60 160//60 
f 140//60 88//60 87//60 
f 137//60 69//60 68//60 
f 149//60 60//60 117//60 
f 153//60 114//60 113//60 
f 111//60 164//60 155//60 
f 111//60 110//60 165//60 
f 108//60 166//60 167//60 
f 108//60 107//60 168//60 
f 106//60 146//60 168//60 
f 156//60 103//60 102//60 
f 162//60 161//60 100//60 
f 160//60 97//60 96//60 
f 95//60 169//60 163//60 
f 95//60 94//60 170//60 
f 119//60 84//60 83//60 
f 151//60 116//60 115//60 
f 165//60 164//60 111//60 
f 110//60 109//60 167//60 
f 168//60 166//60 108//60 
f 146//60 106//60 105//60 
f 159//60 162//60 99//60 
f 170//60 169//60 95//60 
f 93//60 171//60 170//60 
f 93//60 92//60 172//60 
f 92//60 91//60 173//60 
f 91//60 90//60 174//60 
f 144//60 62//60 61//60 
f 167//60 165//60 110//60 
f 168//60 107//60 106//60 
f 163//60 96//60 95//60 
f 172//60 171//60 93//60 
f 174//60 173//60 91//60 
f 155//60 112//60 111//60 
f 161//60 158//60 101//60 
f 173//60 172//60 92//60 
f 89//60 175//60 174//60 
f 167//60 109//60 108//60 
f 174//60 90//60 89//60 
f 170//60 94//60 93//60 
f 140//60 175//60 89//60 
o mesh3
f 174//61 175//62 176//62 
f 173//63 174//61 177//64 
f 172//65 173//63 178//66 
f 171//67 172//65 179//68 
f 170//69 171//67 180//70 
f 169//71 170//69 181//72 
f 163//73 169//71 182//74 
f 160//75 163//73 183//76 
f 159//77 160//75 184//78 
f 162//79 159//77 185//80 
f 161//81 162//79 186//82 
f 158//83 161//81 187//84 
f 157//85 158//83 188//86 
f 156//87 157//85 189//88 
f 147//89 156//87 190//90 
f 145//91 147//89 191//92 
f 146//93 145//91 192//94 
f 168//95 146//93 193//96 
f 166//97 168//95 194//98 
f 167//99 166//97 195//100 
f 165//101 167//99 196//102 
f 164//103 165//101 197//104 
f 155//105 164//103 198//106 
f 154//107 155//105 199//108 
f 153//109 154//107 200//110 
f 152//111 153//109 201//112 
f 151//113 152//111 202//114 
f 150//115 151//113 203//116 
f 149//117 150//115 204//118 
f 148//119 149//117 205//120 
f 144//121 148//119 206//122 
f 143//123 144//121 207//124 
f 138//125 143//123 208//126 
f 133//127 138//125 209//128 
f 131//129 133//127 210//130 
f 132//131 131//129 211//132 
f 136//133 132//131 212//134 
f 137//135 136//133 213//136 
f 135//137 137//135 214//138 
f 134//139 135//137 215//140 
f 126//141 134//139 216//142 
f 124//143 126//141 217//144 
f 125//145 124//143 218//146 
f 130//147 125//145 219//148 
f 129//149 130//147 220//150 
f 128//151 129//149 221//152 
f 127//153 128//151 222//154 
f 123//155 127//153 223//156 
f 122//157 123//155 224//158 
f 121//159 122//157 225//160 
f 120//161 121//159 226//162 
f 118//163 120//161 227//164 
f 119//165 118//163 228//166 
f 142//167 119//165 229//168 
f 141//169 142//167 230//170 
f 139//171 141//169 231//172 
f 140//173 139//171 232//174 
f 175//62 140//173 233//173 
f 233//173 176//62 175//62 
f 232//174 233//173 140//173 
f 231//172 232//174 139//171 
f 230//170 231//172 141//169 
f 229//168 230//170 142//167 
f 228//166 229//168 119//165 
f 227//164 228//166 118//163 
f 226//162 227//164 120//161 
f 225//160 226//162 121//159 
f 224//158 225//160 122//157 
f 223//156 224//158 123//155 
f 222//154 223//156 127//153 
f 221//152 222//154 128//151 
f 220//150 221//152 129//149 
f 219//148 220//150 130//147 
f 218//146 219//148 125//145 
f 217//144 218//146 124//143 
f 216//142 217//144 126//141 
f 215//140 216//142 134//139 
f 214//138 215//140 135//137 
f 213//136 214//138 137//135 
f 212//134 213//136 136//133 
f 211//132 212//134 132//131 
f 210//130 211//132 131//129 
f 209//128 210//130 133//127 
f 208//126 209//128 138//125 
f 207//124 208//126 143//123 
f 206//122 207//124 144//121 
f 205//120 206//122 148//119 
f 204//118 205//120 149//117 
f 203//116 204//118 150//115 
f 202//114 203//116 151//113 
f 201//112 202//114 152//111 
f 200//110 201//112 153//109 
f 199//108 200//110 154//107 
f 198//106 199//108 155//105 
f 197//104 198//106 164//103 
f 196//102 197//104 165//101 
f 195//100 196//102 167//99 
f 194//98 195//100 166//97 
f 193//96 194//98 168//95 
f 192//94 193//96 146//93 
f 191//92 192//94 145//91 
f 190//90 191//92 147//89 
f 189//88 190//90 156//87 
f 188//86 189//88 157//85 
f 187//84 188//86 158//83 
f 186//82 187//84 161//81 
f 185//80 186//82 162//79 
f 184//78 185//80 159//77 
f 183//76 184//78 160//75 
f 182//74 183//76 163//73 
f 181//72 182//74 169//71 
f 180//70 181//72 170//69 
f 179//68 180//70 171//67 
f 178//66 179//68 172//65 
f 177//64 178//66 173//63 
f 176//62 177//64 174//61 
o mesh4
f 234//175 233//175 232//175 
f 232//175 231//175 234//175 
f 231//175 230//175 234//175 
f 230//175 229//175 234//175 
f 229//175 228//175 234//175 
f 228//175 227//175 234//175 
f 227//175 226//175 234//175 
f 226//175 225//175 234//175 
f 225//175 224//175 234//175 
f 224//175 223//175 234//175 
f 223//175 222//175 234//175 
f 222//175 221//175 234//175 
f 221//175 220//175 234//175 
f 220//175 219//175 234//175 
f 219//175 218//175 234//175 
f 218//175 217//175 234//175 
f 217//175 216//175 234//175 
f 216//175 215//175 234//175 
f 215//175 214//175 234//175 
f 214//175 213//175 234//175 
f 213//175 212//175 234//175 
f 212//175 211//175 234//175 
f 211//175 210//175 234//175 
f 210//175 209//175 234//175 
f 209//175 208//175 234//175 
f 208//175 207//175 234//175 
f 207//175 206//175 234//175 
f 206//175 205//175 234//175 
f 205//175 204//175 234//175 
f 204//175 203//175 234//175 
f 203//175 202//175 234//175 
f 202//175 201//175 234//175 
f 201//175 200//175 234//175 
f 200//175 199//175 234//175 
f 199//175 198//175 234//175 
f 198//175 197//175 234//175 
f 197//175 196//175 234//175 
f 196//175 195//175 234//175 
f 195//175 194//175 234//175 
f 194//175 193//175 234//175 
f 193//175 192//175 234//175 
f 192//175 191//175 234//175 
f 191//175 190//175 234//175 
f 190//175 189//175 234//175 
f 189//175 188//175 234//175 
f 188//175 187//175 234//175 
f 187//175 186//175 234//175 
f 186//175 185//175 234//175 
f 185//175 184//175 234//175 
f 184//175 183//175 234//175 
f 183//175 182//175 234//175 
f 182//175 181//175 234//175 
f 181//175 180//175 234//175 
f 180//175 179//175 234//175 
f 179//175 178//175 234//175 
f 178//175 177//175 234//175 
f 177//175 176//175 234//175 
f 176//175 233//175 234//175 
