# File units = meters
mtllib walls.mtl
g walls
v -0.174053 -0.133809 -0.00110623 
v 0.158325 -0.133809 -0.00110623 
v 0.158325 -0.133809 0.105754 
v -0.174053 -0.133809 0.105754 
v 0.158325 -0.0433059 -0.00110623 
v 0.157739 -0.132793 -0.00110623 
v -0.173518 -0.132793 -0.00110623 
v -0.174053 0.117905 -0.00110623 
v -0.173518 0.117905 -0.00110623 
v 0.157739 -0.0433059 -0.00110623 
v -0.174053 0.117905 0.105754 
v -0.173518 0.117905 0.105754 
v -0.173518 -0.132793 0.105754 
v 0.157739 -0.132793 0.105754 
v 0.158325 0.117953 0.105754 
v 0.157739 0.117953 0.105754 
v 0.158325 0.117953 -0.00110623 
v 0.157739 0.117953 -0.00110623 
v 0.158325 0.0415688 -0.00110623 
v 0.157739 0.0415688 -0.00110623 
v 0.158325 0.0415688 0.0949131 
v 0.158325 -0.0433059 0.0949131 
v 0.157739 0.0415688 0.0949131 
v 0.157739 -0.0433059 0.0949131 
v -0.173518 0.0326772 0.0810198 
v -0.173518 0.0326772 0.0363981 
v -0.173518 -0.0349623 0.0810198 
v -0.173518 -0.0349623 0.0363981 
v -0.171994 -0.0349623 0.0363981 
v -0.171994 0.0326772 0.0363981 
v -0.170089 0.0326772 0.0810198 
v -0.170089 -0.0349623 0.0810198 
v -0.171994 0.0326772 0.0788013 
v -0.170089 0.0326772 0.0788013 
v -0.171994 -0.0349623 0.0788013 
v -0.170089 -0.0349623 0.0788013 
v -0.174053 -0.0336923 0.0376577 
v -0.174053 -0.0336923 0.0776162 
v -0.174053 0.0314008 0.0776162 
v -0.174053 0.0314008 0.0376577 
v -0.171994 0.0314008 0.0776162 
v -0.171994 0.0314008 0.0376577 
v -0.171994 -0.0336923 0.0776162 
v -0.171994 -0.0336923 0.0376577 
vn 0 -1 0 
vn 0 0 -1 
vn 0 1 0 
vn 0 0 1 
vn 0 0 -1 
vn 1 0 0 
vn -1 0 0 
vn 0 0 -1 
vn 0 1 0 
vn 0 -1 0 
vn 1 0 0 
vn 0 0 -1 
vn 0 0 1 
vn 0 1 0 
vn 0 -1 0 
vn 0 0 -1 
vn 1 0 0 
vn -1 0 0 
vn 0 -1 0 
vn 0 0 -1 
vn 0 1 0 
vn 0 0 1 
usemtl 1.000000_1.000000_1.000000_0.000000_0.000000
o mesh0
f 1//1 2//1 3//1 
f 3//1 4//1 1//1 
o mesh1
f 5//2 2//2 6//2 
f 1//2 7//2 6//2 
f 6//2 2//2 1//2 
f 8//2 9//2 7//2 
f 7//2 1//2 8//2 
f 6//2 10//2 5//2 
o mesh2
f 9//3 8//3 11//3 
f 11//3 12//3 9//3 
o mesh3
f 13//3 14//3 6//3 
f 6//3 7//3 13//3 
o mesh4
f 11//4 4//4 13//4 
f 4//4 3//4 14//4 
f 14//4 13//4 4//4 
f 15//4 16//4 14//4 
f 14//4 3//4 15//4 
f 13//4 12//4 11//4 
o mesh5
f 15//3 17//3 18//3 
f 18//3 16//3 15//3 
o mesh6
f 17//5 19//5 20//5 
f 20//5 18//5 17//5 
o mesh7
f 17//6 15//6 21//6 
f 15//6 3//6 22//6 
f 22//6 21//6 15//6 
f 2//6 5//6 22//6 
f 22//6 3//6 2//6 
f 21//6 19//6 17//6 
o mesh8
f 16//7 23//7 24//7 
f 18//7 20//7 23//7 
f 6//7 14//7 24//7 
f 23//7 16//7 18//7 
f 24//7 14//7 16//7 
f 24//7 10//7 6//7 
o mesh9
f 22//8 24//8 23//8 
f 23//8 21//8 22//8 
o mesh10
f 10//9 24//9 22//9 
f 22//9 5//9 10//9 
o mesh11
f 21//10 23//10 20//10 
f 20//10 19//10 21//10 
o mesh12
f 12//11 25//11 26//11 
f 12//11 13//11 27//11 
f 13//11 7//11 28//11 
f 9//11 26//11 28//11 
f 27//11 25//11 12//11 
f 28//11 7//11 9//11 
f 28//11 27//11 13//11 
f 26//11 9//11 12//11 
o mesh13
f 29//12 28//12 26//12 
f 26//12 30//12 29//12 
o mesh14
f 31//13 25//13 27//13 
f 27//13 32//13 31//13 
o mesh15
f 26//14 25//14 33//14 
f 31//14 34//14 33//14 
f 33//14 25//14 31//14 
f 33//14 30//14 26//14 
o mesh16
f 32//15 27//15 35//15 
f 28//15 29//15 35//15 
f 35//15 27//15 28//15 
f 35//15 36//15 32//15 
o mesh17
f 36//16 35//16 33//16 
f 33//16 34//16 36//16 
o mesh18
f 31//17 32//17 36//17 
f 36//17 34//17 31//17 
o mesh19
f 8//18 1//18 37//18 
f 4//18 38//18 37//18 
f 37//18 1//18 4//18 
f 11//18 39//18 38//18 
f 11//18 8//18 40//18 
f 38//18 4//18 11//18 
f 37//18 40//18 8//18 
f 40//18 39//18 11//18 
o mesh20
f 33//17 41//17 42//17 
f 35//17 43//17 41//17 
f 41//17 33//17 35//17 
f 35//17 29//17 44//17 
f 44//17 43//17 35//17 
f 29//17 30//17 42//17 
f 42//17 44//17 29//17 
f 42//17 30//17 33//17 
o mesh21
f 39//19 40//19 42//19 
f 42//19 41//19 39//19 
o mesh22
f 43//20 38//20 39//20 
f 39//20 41//20 43//20 
o mesh23
f 44//21 37//21 38//21 
f 38//21 43//21 44//21 
o mesh24
f 40//22 37//22 44//22 
f 44//22 42//22 40//22 
g sponge
v -0.167118 -0.0161733 0.02794 
v -0.171243 -0.0185549 0.02794 
v -0.171243 -0.0185549 0.0285624 
v -0.167118 -0.0161733 0.0285624 
v -0.165546 -0.0188963 0.02794 
v -0.165546 -0.0188963 0.0285624 
v -0.169671 -0.0212778 0.0285624 
v -0.169671 -0.0212778 0.02794 
v -0.171244 -0.0185527 0.0287782 
v -0.171244 -0.0185527 0.0285624 
v -0.169669 -0.02128 0.0287782 
v -0.169669 -0.02128 0.0285624 
v -0.167117 -0.0161698 0.0285624 
v -0.165542 -0.0188972 0.0285624 
v -0.165542 -0.0188972 0.0287782 
v -0.167117 -0.0161698 0.0287782 
vn -0.5 0.866025 0 
vn 0.866025 0.5 0 
vn 0.5 -0.866025 0 
vn 0 0 -1 
vn -0.866025 -0.5 0 
vn 0 0 1 
vn 0.5 -0.866025 0 
vn -0.5 0.866025 0 
vn 0.866025 0.5 0 
usemtl 0.325490_0.529412_0.752941_0.000000_0.000000
o mesh25
f 45//23 46//23 47//23 
f 47//23 48//23 45//23 
o mesh26
f 49//24 45//24 48//24 
f 48//24 50//24 49//24 
o mesh27
f 49//25 50//25 51//25 
f 51//25 52//25 49//25 
usemtl 0.980392_0.713725_0.003922_0.000000_0.000000
o mesh28
f 49//26 52//26 46//26 
f 46//26 45//26 49//26 
usemtl 0.325490_0.529412_0.752941_0.000000_0.000000
o mesh29
f 52//27 51//27 47//27 
f 53//27 54//27 47//27 
f 55//27 53//27 51//27 
f 47//27 51//27 53//27 
f 47//27 46//27 52//27 
f 51//27 56//27 55//27 
usemtl 0.980392_0.713725_0.003922_0.000000_0.000000
o mesh30
f 54//26 57//26 48//26 
f 58//26 50//26 48//26 
f 48//26 57//26 58//26 
f 56//26 51//26 50//26 
f 50//26 58//26 56//26 
f 48//26 47//26 54//26 
usemtl 0.086275_0.321569_0.580392_0.000000_0.000000
o mesh31
f 59//28 60//28 53//28 
f 53//28 55//28 59//28 
o mesh32
f 59//29 55//29 56//29 
f 56//29 58//29 59//29 
o mesh33
f 60//30 57//30 54//30 
f 54//30 53//30 60//30 
o mesh34
f 59//31 58//31 57//31 
f 57//31 60//31 59//31 
