# File units = meters
mtllib refrigerator_0515.mtl
g Part 5
v -0.173518 0.109907 -0.0290462 
v -0.173518 0.109907 0.0454866 
v -0.140359 0.109907 0.0454866 
v -0.140359 0.109907 -0.0290462 
v -0.173518 0.066202 -0.0290462 
v -0.173518 0.066202 0.0454866 
v -0.140359 0.066202 -0.0290462 
v -0.140359 0.066202 0.0454866 
v -0.139253 0.0670972 -0.0290462 
v -0.139284 0.066983 -0.0290462 
v -0.140009 0.0662573 -0.0290462 
v -0.139694 0.0664178 -0.0290462 
v -0.139793 0.0663534 -0.0290462 
v -0.139519 0.066576 -0.0290462 
v -0.139602 0.0664923 -0.0290462 
v -0.139235 0.0672141 -0.0290462 
v -0.139326 0.109237 -0.0290462 
v -0.139284 0.109127 -0.0290462 
v -0.140124 0.0662267 -0.0290462 
v -0.13938 0.0667671 -0.0290462 
v -0.139444 0.0666679 -0.0290462 
v -0.139326 0.0668725 -0.0290462 
v -0.139253 0.109012 -0.0290462 
v -0.140009 0.109852 -0.0290462 
v -0.139694 0.109692 -0.0290462 
v -0.139602 0.109617 -0.0290462 
v -0.139899 0.10981 -0.0290462 
v -0.139793 0.109756 -0.0290462 
v -0.139899 0.0662997 -0.0290462 
v -0.13938 0.109342 -0.0290462 
v -0.139519 0.109534 -0.0290462 
v -0.139444 0.109442 -0.0290462 
v -0.14024 0.109901 -0.0290462 
v -0.140124 0.109883 -0.0290462 
v -0.14024 0.0662082 -0.0290462 
v -0.139228 0.0673322 -0.0290462 
v -0.139235 0.108895 -0.0290462 
v -0.139228 0.108777 -0.0290462 
v -0.14024 0.109901 0.0454866 
v -0.140124 0.109883 0.0454866 
v -0.140009 0.109852 0.0454866 
v -0.139899 0.10981 0.0454866 
v -0.139793 0.109756 0.0454866 
v -0.139694 0.109692 0.0454866 
v -0.139602 0.109617 0.0454866 
v -0.139519 0.109534 0.0454866 
v -0.139444 0.109442 -0.00249292 
v -0.13938 0.109342 -0.00249292 
v -0.139326 0.109237 -0.00249292 
v -0.139284 0.109127 -0.00249292 
v -0.139253 0.109012 -0.00249292 
v -0.139235 0.108895 -0.00249292 
v -0.139228 0.108777 -0.00249292 
v -0.139235 0.108895 -0.00222531 
v -0.139235 0.108895 0.0454866 
v -0.139228 0.108777 0.0454866 
v -0.139253 0.109012 -0.00222531 
v -0.139253 0.109012 0.0454866 
v -0.139284 0.109127 -0.00222531 
v -0.139284 0.109127 0.0454866 
v -0.139326 0.109237 -0.00222531 
v -0.139326 0.109237 0.0454866 
v -0.13938 0.109342 -0.00222531 
v -0.13938 0.109342 0.0454866 
v -0.139444 0.109442 -0.00222531 
v -0.139444 0.109442 0.0454866 
v -0.139482 0.109491 -0.00222531 
v -0.139482 0.109491 -0.00249292 
v -0.139228 0.108777 -0.00222531 
v -0.139326 0.0668725 -0.00249292 
v -0.139284 0.066983 -0.00249292 
v -0.139253 0.0670972 -0.00249292 
v -0.139235 0.0672141 -0.00249292 
v -0.13938 0.0667671 -0.00249292 
v -0.139444 0.0666679 -0.00249292 
v -0.139482 0.0666183 -0.00249292 
v -0.139228 0.0673322 -0.00249292 
v -0.139482 0.0880547 -0.00222531 
v -0.139228 0.0880547 -0.00222531 
v -0.139228 0.0880547 0.0454866 
v -0.139482 0.0880547 0.0454866 
v -0.139326 0.0668725 0.0454866 
v -0.139284 0.066983 0.0454866 
v -0.139253 0.0670972 0.0454866 
v -0.140009 0.0662573 0.0454866 
v -0.139694 0.0664178 0.0454866 
v -0.139602 0.0664923 0.0454866 
v -0.139899 0.0662997 0.0454866 
v -0.139793 0.0663534 0.0454866 
v -0.13938 0.0667671 0.0454866 
v -0.139519 0.066576 0.0454866 
v -0.139444 0.0666679 0.0454866 
v -0.14024 0.0662082 0.0454866 
v -0.140124 0.0662267 0.0454866 
v -0.139235 0.0672141 0.0454866 
v -0.139228 0.0673322 0.0454866 
v -0.139228 0.0877687 0.0454866 
v -0.139482 0.0877687 0.0454866 
v -0.139444 0.0666679 -0.00222531 
v -0.13938 0.0667671 -0.00222531 
v -0.139326 0.0668725 -0.00222531 
v -0.139284 0.066983 -0.00222531 
v -0.139253 0.0670972 -0.00222531 
v -0.139235 0.0672141 -0.00222531 
v -0.139228 0.0673322 -0.00222531 
v -0.139482 0.0666183 -0.00222531 
v -0.139482 0.0877687 -0.00222531 
v -0.139228 0.0877687 -0.00222531 
v -0.139228 0.0953141 -0.00517647 
v -0.139228 0.0799361 -0.00517647 
v -0.139228 0.0791955 -0.00517647 
v -0.139228 0.0791955 -0.00664914 
v -0.139228 0.0961632 -0.00517647 
v -0.139228 0.0961632 -0.00664914 
v -0.139228 0.0799361 -0.00664914 
v -0.139228 0.0953141 -0.00664914 
v -0.137958 0.0791955 -0.00517647 
v -0.137958 0.0791955 -0.00664914 
v -0.137958 0.0961632 -0.00517647 
v -0.137958 0.0961632 -0.00664914 
v -0.13838 0.0799361 -0.00517647 
v -0.13838 0.0953141 -0.00517647 
v -0.13838 0.0953141 -0.00664914 
v -0.13838 0.0799361 -0.00664914 
v -0.139228 0.0920734 0.0120922 
v -0.139228 0.0920734 0.0267589 
v -0.139228 0.0920734 0.0277514 
v -0.139228 0.0907914 0.0277514 
v -0.139228 0.0907914 0.0267589 
v -0.139228 0.0907914 0.0120922 
v -0.139228 0.0907914 0.0110851 
v -0.139228 0.0920734 0.0110851 
v -0.137958 0.0920734 0.0277514 
v -0.137958 0.0907914 0.0277514 
v -0.137958 0.0907914 0.0110851 
v -0.137958 0.0920734 0.0110851 
v -0.138393 0.0920734 0.0267589 
v -0.138393 0.0920734 0.0120922 
v -0.138393 0.0907914 0.0267589 
v -0.138393 0.0907914 0.0120922 
v -0.139228 0.085318 0.0120922 
v -0.139228 0.085318 0.0267589 
v -0.139228 0.085318 0.0277514 
v -0.139228 0.084036 0.0120922 
v -0.139228 0.084036 0.0277514 
v -0.139228 0.084036 0.0267589 
v -0.139228 0.084036 0.0110851 
v -0.139228 0.085318 0.0110851 
v -0.137958 0.085318 0.0277514 
v -0.137958 0.084036 0.0277514 
v -0.137958 0.084036 0.0110851 
v -0.137958 0.085318 0.0110851 
v -0.138393 0.084036 0.0120922 
v -0.138393 0.084036 0.0267589 
v -0.138393 0.085318 0.0267589 
v -0.138393 0.085318 0.0120922 
vn 0 1 0 
vn -1 0 0 
vn 0 -1 0 
vn 0 0 -1 
vn -6.12323e-17 1 0 
vn 0.104528 0.994522 0 
vn 0.207912 0.978148 0 
vn 0.309017 0.951057 0 
vn 0.406737 0.913545 0 
vn 0.5 0.866025 0 
vn 0.587785 0.809017 0 
vn 0.669131 0.743145 0 
vn 0.743145 0.669131 0 
vn 0.809017 0.587785 0 
vn 0.866025 0.5 0 
vn 0.913545 0.406737 0 
vn 0.951057 0.309017 0 
vn 0.978148 0.207912 0 
vn 0.994522 0.104528 0 
vn 1 1.22465e-16 0 
vn 0.978148 0.207912 0 
vn 0.951057 0.309017 0 
vn 0.913545 0.406737 0 
vn 0.866025 0.5 0 
vn 0.809017 0.587785 0 
vn 0.743145 0.669131 0 
vn 0.775266 0.631635 0 
vn 1 1.22465e-16 0 
vn 0 0 1 
vn 0 0 -1 
vn 0 -1 0 
vn 0 0 1 
vn 0.104528 -0.994522 0 
vn 0.207912 -0.978148 0 
vn 0.309017 -0.951057 0 
vn 0.406737 -0.913545 0 
vn 0.5 -0.866025 0 
vn 0.587785 -0.809017 0 
vn 0.669131 -0.743145 0 
vn 0.743145 -0.669131 0 
vn 0.809017 -0.587785 0 
vn 0.866025 -0.5 0 
vn 0.913545 -0.406737 0 
vn 0.951057 -0.309017 0 
vn 0.978148 -0.207912 0 
vn 0.994522 -0.104528 0 
vn 1 0 0 
vn 0.978148 -0.207912 0 
vn 0.951057 -0.309017 0 
vn 0.913545 -0.406737 0 
vn 0.866025 -0.5 0 
vn 0.809017 -0.587785 0 
vn 0.775266 -0.631635 0 
vn 0.743145 -0.669131 0 
vn 1 -2.44929e-16 0 
vn 0 1 0 
vn 0 0 -1 
vn 1 0 0 
vn 0 -1 0 
vn 0 1 0 
vn 1 0 0 
vn 0 0 1 
vn 0 0 -1 
vn 0 1 0 
vn -1 0 0 
vn 0 -1 0 
vn 1 0 0 
vn 0 0 1 
vn 0 0 -1 
vn 1 0 0 
vn 0 1 0 
vn 0 -1 0 
vn 0 0 -1 
vn -1 0 0 
vn 0 0 1 
vn 1 0 0 
vn 0 0 -1 
vn 0 -1 0 
vn 0 1 0 
vn 0 0 1 
vn -1 0 0 
vn 0 0 -1 
usemtl 0.811765_0.858824_0.898039_0.000000_0.000000
o mesh0
f 1//1 2//1 3//1 
f 3//1 4//1 1//1 
o mesh1
f 5//2 6//2 2//2 
f 2//2 1//2 5//2 
o mesh2
f 6//3 5//3 7//3 
f 7//3 8//3 6//3 
o mesh3
f 7//4 9//4 10//4 
f 11//4 12//4 13//4 
f 11//4 14//4 15//4 
f 7//4 16//4 9//4 
f 4//4 17//4 18//4 
f 14//4 11//4 19//4 
f 15//4 12//4 11//4 
f 7//4 20//4 21//4 
f 10//4 22//4 7//4 
f 18//4 23//4 4//4 
f 24//4 25//4 26//4 
f 24//4 27//4 28//4 
f 13//4 29//4 11//4 
f 22//4 20//4 7//4 
f 4//4 30//4 17//4 
f 4//4 31//4 32//4 
f 28//4 25//4 24//4 
f 31//4 33//4 34//4 
f 19//4 35//4 14//4 
f 7//4 36//4 16//4 
f 32//4 30//4 4//4 
f 34//4 24//4 31//4 
f 21//4 14//4 7//4 
f 23//4 37//4 4//4 
f 31//4 4//4 33//4 
f 35//4 7//4 14//4 
f 5//4 1//4 38//4 
f 26//4 31//4 24//4 
f 38//4 36//4 5//4 
f 38//4 1//4 4//4 
f 37//4 38//4 4//4 
f 7//4 5//4 36//4 
o mesh4
f 4//5 3//5 39//6 
f 33//6 39//6 40//7 
f 34//7 40//7 41//8 
f 24//8 41//8 42//9 
f 27//9 42//9 43//10 
f 28//10 43//10 44//11 
f 25//11 44//11 45//12 
f 26//12 45//12 46//13 
f 32//14 47//14 48//15 
f 30//15 48//15 49//16 
f 17//16 49//16 50//17 
f 18//17 50//17 51//18 
f 23//18 51//18 52//19 
f 37//19 52//19 53//20 
f 54//19 55//19 56//20 
f 57//21 58//21 55//19 
f 59//22 60//22 58//21 
f 61//23 62//23 60//22 
f 63//24 64//24 62//23 
f 65//25 66//25 64//24 
f 31//26 46//13 67//27 
f 67//27 68//27 31//26 
f 68//27 32//14 31//26 
f 68//27 47//14 32//14 
f 66//25 65//25 67//27 
f 67//27 46//13 66//25 
f 64//24 63//24 65//25 
f 62//23 61//23 63//24 
f 60//22 59//22 61//23 
f 58//21 57//21 59//22 
f 55//19 54//19 57//21 
f 56//20 69//28 54//19 
f 53//20 38//28 37//19 
f 52//19 37//19 23//18 
f 51//18 23//18 18//17 
f 50//17 18//17 17//16 
f 49//16 17//16 30//15 
f 48//15 30//15 32//14 
f 46//13 31//26 26//12 
f 45//12 26//12 25//11 
f 44//11 25//11 28//10 
f 43//10 28//10 27//9 
f 42//9 27//9 24//8 
f 41//8 24//8 34//7 
f 40//7 34//7 33//6 
f 39//6 33//6 4//5 
o mesh5
f 49//29 52//29 51//29 
f 51//29 50//29 49//29 
f 70//29 71//29 72//29 
f 49//29 48//29 52//29 
f 73//29 74//29 70//29 
f 47//29 53//29 52//29 
f 73//29 75//29 74//29 
f 48//29 47//29 52//29 
f 76//29 77//29 53//29 
f 72//29 73//29 70//29 
f 53//29 68//29 76//29 
f 77//29 76//29 75//29 
f 73//29 77//29 75//29 
f 47//29 68//29 53//29 
o mesh6
f 61//30 59//30 57//30 
f 54//30 63//30 61//30 
f 54//30 65//30 63//30 
f 57//30 54//30 61//30 
f 78//30 67//30 69//30 
f 69//30 67//30 65//30 
f 54//30 69//30 65//30 
f 69//30 79//30 78//30 
o mesh7
f 78//31 79//31 80//31 
f 80//31 81//31 78//31 
o mesh8
f 8//32 82//32 83//32 
f 3//32 58//32 60//32 
f 83//32 84//32 8//32 
f 85//32 86//32 87//32 
f 85//32 88//32 89//32 
f 41//32 44//32 43//32 
f 41//32 46//32 45//32 
f 3//32 55//32 58//32 
f 8//32 90//32 82//32 
f 8//32 91//32 92//32 
f 89//32 86//32 85//32 
f 91//32 93//32 94//32 
f 46//32 41//32 40//32 
f 45//32 44//32 41//32 
f 3//32 64//32 66//32 
f 60//32 62//32 3//32 
f 92//32 90//32 8//32 
f 94//32 85//32 91//32 
f 43//32 42//32 41//32 
f 62//32 64//32 3//32 
f 84//32 95//32 8//32 
f 91//32 8//32 93//32 
f 40//32 39//32 46//32 
f 3//32 56//32 55//32 
f 87//32 91//32 85//32 
f 66//32 46//32 3//32 
f 96//32 97//32 98//32 
f 96//32 6//32 8//32 
f 39//32 3//32 46//32 
f 56//32 2//32 81//32 
f 6//32 98//32 81//32 
f 95//32 96//32 8//32 
f 81//32 80//32 56//32 
f 98//32 6//32 96//32 
f 81//32 2//32 6//32 
f 3//32 2//32 56//32 
o mesh9
f 8//31 7//31 35//33 
f 93//33 35//33 19//34 
f 94//34 19//34 11//35 
f 85//35 11//35 29//36 
f 88//36 29//36 13//37 
f 89//37 13//37 12//38 
f 86//38 12//38 15//39 
f 87//39 15//39 14//40 
f 92//41 99//41 100//42 
f 90//42 100//42 101//43 
f 82//43 101//43 102//44 
f 83//44 102//44 103//45 
f 84//45 103//45 104//46 
f 95//46 104//46 105//47 
f 73//46 16//46 36//47 
f 72//48 9//48 16//46 
f 71//49 10//49 9//48 
f 70//50 22//50 10//49 
f 74//51 20//51 22//50 
f 75//52 21//52 20//51 
f 14//40 76//53 106//53 
f 106//53 91//54 14//40 
f 106//53 92//41 91//54 
f 106//53 99//41 92//41 
f 21//52 75//52 76//53 
f 76//53 14//40 21//52 
f 20//51 74//51 75//52 
f 22//50 70//50 74//51 
f 10//49 71//49 70//50 
f 9//48 72//48 71//49 
f 16//46 73//46 72//48 
f 36//47 77//55 73//46 
f 105//47 96//55 95//46 
f 104//46 95//46 84//45 
f 103//45 84//45 83//44 
f 102//44 83//44 82//43 
f 101//43 82//43 90//42 
f 100//42 90//42 92//41 
f 14//40 91//54 87//39 
f 15//39 87//39 86//38 
f 12//38 86//38 89//37 
f 13//37 89//37 88//36 
f 29//36 88//36 85//35 
f 11//35 85//35 94//34 
f 19//34 94//34 93//33 
f 35//33 93//33 8//31 
usemtl 0.301961_0.301961_0.301961_0.000000_0.000000
o mesh10
f 76//55 78//55 107//55 
f 98//55 107//55 78//55 
f 78//55 81//55 98//55 
f 68//55 67//55 78//55 
f 78//55 76//55 68//55 
f 107//55 106//55 76//55 
usemtl 0.811765_0.858824_0.898039_0.000000_0.000000
o mesh11
f 98//56 97//56 108//56 
f 108//56 107//56 98//56 
o mesh12
f 101//57 104//57 103//57 
f 103//57 102//57 101//57 
f 101//57 100//57 104//57 
f 99//57 105//57 104//57 
f 100//57 99//57 104//57 
f 107//57 108//57 105//57 
f 105//57 106//57 107//57 
f 99//57 106//57 105//57 
o mesh13
f 109//58 77//58 110//58 
f 77//58 111//58 110//58 
f 77//58 36//58 112//58 
f 53//58 113//58 114//58 
f 53//58 77//58 109//58 
f 112//58 111//58 77//58 
f 36//58 38//58 115//58 
f 109//58 113//58 53//58 
f 115//58 112//58 36//58 
f 116//58 110//58 115//58 
f 110//58 116//58 109//58 
f 38//58 114//58 116//58 
f 115//58 38//58 116//58 
f 114//58 38//58 53//58 
o mesh14
f 117//59 111//59 112//59 
f 112//59 118//59 117//59 
o mesh15
f 119//60 120//60 114//60 
f 114//60 113//60 119//60 
o mesh16
f 120//61 119//61 117//61 
f 117//61 118//61 120//61 
o mesh17
f 111//62 117//62 121//62 
f 117//62 119//62 122//62 
f 122//62 121//62 117//62 
f 113//62 109//62 122//62 
f 122//62 119//62 113//62 
f 121//62 110//62 111//62 
o mesh18
f 114//63 120//63 123//63 
f 118//63 124//63 123//63 
f 123//63 120//63 118//63 
f 112//63 115//63 124//63 
f 124//63 118//63 112//63 
f 123//63 116//63 114//63 
o mesh19
f 124//64 115//64 110//64 
f 110//64 121//64 124//64 
o mesh20
f 123//65 124//65 121//65 
f 121//65 122//65 123//65 
o mesh21
f 109//66 116//66 123//66 
f 123//66 122//66 109//66 
o mesh22
f 125//67 56//67 126//67 
f 56//67 127//67 126//67 
f 80//67 128//67 127//67 
f 127//67 56//67 80//67 
f 80//67 79//67 129//67 
f 129//67 79//67 130//67 
f 129//67 128//67 80//67 
f 79//67 131//67 130//67 
f 130//67 126//67 129//67 
f 79//67 69//67 132//67 
f 69//67 56//67 125//67 
f 132//67 131//67 79//67 
f 126//67 130//67 125//67 
f 125//67 132//67 69//67 
o mesh23
f 133//68 127//68 128//68 
f 128//68 134//68 133//68 
o mesh24
f 135//69 131//69 132//69 
f 132//69 136//69 135//69 
o mesh25
f 135//70 136//70 133//70 
f 133//70 134//70 135//70 
usemtl 0.349020_0.376471_0.400000_0.000000_0.000000
o mesh26
f 127//71 133//71 137//71 
f 133//71 136//71 138//71 
f 138//71 137//71 133//71 
f 132//71 125//71 138//71 
f 138//71 136//71 132//71 
f 137//71 126//71 127//71 
o mesh27
f 134//72 139//72 140//72 
f 128//72 129//72 139//72 
f 131//72 135//72 140//72 
f 139//72 134//72 128//72 
f 140//72 135//72 134//72 
f 140//72 130//72 131//72 
usemtl 0.811765_0.858824_0.898039_0.000000_0.000000
o mesh28
f 126//73 137//73 139//73 
f 139//73 129//73 126//73 
o mesh29
f 139//74 137//74 138//74 
f 138//74 140//74 139//74 
o mesh30
f 140//75 138//75 125//75 
f 125//75 130//75 140//75 
o mesh31
f 141//76 97//76 142//76 
f 108//76 97//76 141//76 
f 97//76 143//76 142//76 
f 142//76 144//76 141//76 
f 97//76 96//76 145//76 
f 145//76 143//76 97//76 
f 96//76 105//76 146//76 
f 146//76 105//76 144//76 
f 146//76 145//76 96//76 
f 105//76 147//76 144//76 
f 144//76 142//76 146//76 
f 108//76 148//76 147//76 
f 147//76 105//76 108//76 
f 141//76 148//76 108//76 
o mesh32
f 149//75 143//75 145//75 
f 145//75 150//75 149//75 
o mesh33
f 151//77 147//77 148//77 
f 148//77 152//77 151//77 
o mesh34
f 151//76 152//76 149//76 
f 149//76 150//76 151//76 
usemtl 0.349020_0.376471_0.400000_0.000000_0.000000
o mesh35
f 147//78 151//78 153//78 
f 150//78 154//78 153//78 
f 153//78 151//78 150//78 
f 145//78 146//78 154//78 
f 154//78 150//78 145//78 
f 153//78 144//78 147//78 
o mesh36
f 143//79 149//79 155//79 
f 149//79 152//79 156//79 
f 156//79 155//79 149//79 
f 148//79 141//79 156//79 
f 156//79 152//79 148//79 
f 155//79 142//79 143//79 
usemtl 0.811765_0.858824_0.898039_0.000000_0.000000
o mesh37
f 153//80 156//80 141//80 
f 141//80 144//80 153//80 
o mesh38
f 154//81 155//81 156//81 
f 156//81 153//81 154//81 
o mesh39
f 142//82 155//82 154//82 
f 154//82 146//82 142//82 
