# File units = meters
mtllib bowl_0515.mtl
g Part 14
v 0.00742108 0.0125216 0.001524 
v 0.0073688 0.0122027 0.001524 
v 0.00728236 0.0118913 0.001524 
v 0.00716275 0.0115911 0.001524 
v 0.00701139 0.0113057 0.001524 
v 0.00683005 0.0110382 0.001524 
v 0.00662086 0.0107919 0.001524 
v 0.00638627 0.0105697 0.001524 
v 0.00612902 0.0103741 0.001524 
v 0.00585215 0.0102076 0.001524 
v 0.00555888 0.0100719 0.001524 
v 0.00525266 0.0099687 0.001524 
v 0.00493708 0.00989923 0.001524 
v 0.00461584 0.0098643 0.001524 
v 0.00429271 0.0098643 0.001524 
v 0.00397147 0.00989923 0.001524 
v 0.00365589 0.0099687 0.001524 
v 0.00334967 0.0100719 0.001524 
v 0.0030564 0.0102076 0.001524 
v 0.00277952 0.0103741 0.001524 
v 0.00252228 0.0105697 0.001524 
v 0.00228768 0.0107919 0.001524 
v 0.00207849 0.0110382 0.001524 
v 0.00189715 0.0113057 0.001524 
v 0.00174579 0.0115911 0.001524 
v 0.00162619 0.0118913 0.001524 
v 0.00153974 0.0122027 0.001524 
v 0.00148746 0.0125216 0.001524 
v 0.00146997 0.0128442 0.001524 
v 0.00148746 0.0131669 0.001524 
v 0.00153974 0.0134858 0.001524 
v 0.00162619 0.0137971 0.001524 
v 0.00174579 0.0140973 0.001524 
v 0.00189715 0.0143828 0.001524 
v 0.00207849 0.0146502 0.001524 
v 0.00228768 0.0148965 0.001524 
v 0.00252228 0.0151187 0.001524 
v 0.00277952 0.0153143 0.001524 
v 0.0030564 0.0154809 0.001524 
v 0.00334967 0.0156166 0.001524 
v 0.00365589 0.0157197 0.001524 
v 0.00397147 0.0157892 0.001524 
v 0.00429271 0.0158241 0.001524 
v 0.00461584 0.0158241 0.001524 
v 0.00493708 0.0157892 0.001524 
v 0.00525266 0.0157197 0.001524 
v 0.00555888 0.0156166 0.001524 
v 0.00585215 0.0154809 0.001524 
v 0.00612902 0.0153143 0.001524 
v 0.00638627 0.0151187 0.001524 
v 0.00662086 0.0148965 0.001524 
v 0.00683005 0.0146502 0.001524 
v 0.00701139 0.0143828 0.001524 
v 0.00716275 0.0140973 0.001524 
v 0.00728236 0.0137971 0.001524 
v 0.0073688 0.0134858 0.001524 
v 0.00742108 0.0131669 0.001524 
v 0.00743857 0.0128442 0.001524 
v 0.00445427 0.0128442 0.001524 
v 0.0088125 0.0128442 0.0044704 
v 0.00878696 0.0133154 0.0044704 
v 0.00871061 0.0137811 0.0044704 
v 0.00858436 0.0142358 0.0044704 
v 0.0084097 0.0146742 0.0044704 
v 0.00818865 0.0150911 0.0044704 
v 0.00792383 0.0154817 0.0044704 
v 0.00761833 0.0158414 0.0044704 
v 0.00727573 0.0161659 0.0044704 
v 0.00690006 0.0164515 0.0044704 
v 0.0064957 0.0166948 0.0044704 
v 0.00606742 0.0168929 0.0044704 
v 0.00562022 0.0170436 0.0044704 
v 0.00515936 0.017145 0.0044704 
v 0.00469022 0.0171961 0.0044704 
v 0.00421832 0.0171961 0.0044704 
v 0.00374919 0.017145 0.0044704 
v 0.00328832 0.0170436 0.0044704 
v 0.00284113 0.0168929 0.0044704 
v 0.00241284 0.0166948 0.0044704 
v 0.00200849 0.0164515 0.0044704 
v 0.00163281 0.0161659 0.0044704 
v 0.00129022 0.0158414 0.0044704 
v 0.000984715 0.0154817 0.0044704 
v 0.000719891 0.0150911 0.0044704 
v 0.00049885 0.0146742 0.0044704 
v 0.000324181 0.0142358 0.0044704 
v 0.000197935 0.0137811 0.0044704 
v 0.00012159 0.0133154 0.0044704 
v 9.60419e-05 0.0128442 0.0044704 
v 0.00012159 0.012373 0.0044704 
v 0.000197935 0.0119073 0.0044704 
v 0.000324181 0.0114526 0.0044704 
v 0.00049885 0.0110142 0.0044704 
v 0.000719891 0.0105973 0.0044704 
v 0.000984715 0.0102067 0.0044704 
v 0.00129022 0.00984707 0.0044704 
v 0.00163281 0.00952254 0.0044704 
v 0.00200849 0.00923696 0.0044704 
v 0.00241284 0.00899367 0.0044704 
v 0.00284113 0.00879553 0.0044704 
v 0.00328832 0.00864485 0.0044704 
v 0.00374919 0.0085434 0.0044704 
v 0.00421832 0.00849238 0.0044704 
v 0.00469022 0.00849238 0.0044704 
v 0.00515936 0.0085434 0.0044704 
v 0.00562022 0.00864485 0.0044704 
v 0.00606742 0.00879553 0.0044704 
v 0.0064957 0.00899367 0.0044704 
v 0.00690006 0.00923696 0.0044704 
v 0.00727573 0.00952254 0.0044704 
v 0.00761833 0.00984707 0.0044704 
v 0.00792383 0.0102067 0.0044704 
v 0.00818865 0.0105973 0.0044704 
v 0.0084097 0.0110142 0.0044704 
v 0.00858436 0.0114526 0.0044704 
v 0.00871061 0.0119073 0.0044704 
v 0.00878696 0.012373 0.0044704 
v 0.00379453 0.0168685 0.0044704 
v 0.0042335 0.0169162 0.0044704 
v 0.0033633 0.0167736 0.0044704 
v 0.00554525 0.0167736 0.0044704 
v 0.00596369 0.0166326 0.0044704 
v 0.00511402 0.0168685 0.0044704 
v 0.00294486 0.0166326 0.0044704 
v 0.00254412 0.0164472 0.0044704 
v 0.00216577 0.0162195 0.0044704 
v 0.00181425 0.0159523 0.0044704 
v 0.00149368 0.0156486 0.0044704 
v 0.00467505 0.0169162 0.0044704 
v 0.00120783 0.0153121 0.0044704 
v 0.000960032 0.0149466 0.0044704 
v 0.000753205 0.0145565 0.0044704 
v 0.000400205 0.0124033 0.0044704 
v 0.0003763 0.0128442 0.0044704 
v 0.000471641 0.0119676 0.0044704 
v 0.000753205 0.0111319 0.0044704 
v 0.000589769 0.0115421 0.0044704 
v 0.000960032 0.0107418 0.0044704 
v 0.000589769 0.0141463 0.0044704 
v 0.000471641 0.0137209 0.0044704 
v 0.000400205 0.0132851 0.0044704 
v 0.00120783 0.0103763 0.0044704 
v 0.00149368 0.0100398 0.0044704 
v 0.00181425 0.00973615 0.0044704 
v 0.00379453 0.00881997 0.0044704 
v 0.0042335 0.00877223 0.0044704 
v 0.0033633 0.00891489 0.0044704 
v 0.00294486 0.00905588 0.0044704 
v 0.00216577 0.00946893 0.0044704 
v 0.00254412 0.00924128 0.0044704 
v 0.00467505 0.00877223 0.0044704 
v 0.00511402 0.00881997 0.0044704 
v 0.00554525 0.00891489 0.0044704 
v 0.00596369 0.00905588 0.0044704 
v 0.00636443 0.00924128 0.0044704 
v 0.00636443 0.0164472 0.0044704 
v 0.00674278 0.0162195 0.0044704 
v 0.00741486 0.0100398 0.0044704 
v 0.0070943 0.00973615 0.0044704 
v 0.00770072 0.0103763 0.0044704 
v 0.00794851 0.0107418 0.0044704 
v 0.00815534 0.0111319 0.0044704 
v 0.00815534 0.0145565 0.0044704 
v 0.00831878 0.0141463 0.0044704 
v 0.00794851 0.0149466 0.0044704 
v 0.00741486 0.0156486 0.0044704 
v 0.00770072 0.0153121 0.0044704 
v 0.0070943 0.0159523 0.0044704 
v 0.00674278 0.00946893 0.0044704 
v 0.00831878 0.0115421 0.0044704 
v 0.0084369 0.0119676 0.0044704 
v 0.0084369 0.0137209 0.0044704 
v 0.00850834 0.0132851 0.0044704 
v 0.00850834 0.0124033 0.0044704 
v 0.00853225 0.0128442 0.0044704 
v 0.00726021 0.0131494 0.001778 
v 0.00721077 0.013451 0.001778 
v 0.00712901 0.0137454 0.001778 
v 0.00701589 0.0140294 0.001778 
v 0.00687274 0.0142994 0.001778 
v 0.00670123 0.0145523 0.001778 
v 0.00650339 0.0147852 0.001778 
v 0.00628151 0.0149954 0.001778 
v 0.00603822 0.0151804 0.001778 
v 0.00577635 0.0153379 0.001778 
v 0.00549898 0.0154662 0.001778 
v 0.00520937 0.0155638 0.001778 
v 0.0049109 0.0156295 0.001778 
v 0.00460708 0.0156626 0.001778 
v 0.00430147 0.0156626 0.001778 
v 0.00399765 0.0156295 0.001778 
v 0.00369918 0.0155638 0.001778 
v 0.00340956 0.0154662 0.001778 
v 0.0031322 0.0153379 0.001778 
v 0.00287033 0.0151804 0.001778 
v 0.00262703 0.0149954 0.001778 
v 0.00240516 0.0147852 0.001778 
v 0.00220731 0.0145523 0.001778 
v 0.00203581 0.0142994 0.001778 
v 0.00189265 0.0140294 0.001778 
v 0.00177953 0.0137454 0.001778 
v 0.00169777 0.013451 0.001778 
v 0.00164833 0.0131494 0.001778 
v 0.00163179 0.0128442 0.001778 
v 0.00164833 0.0125391 0.001778 
v 0.00169777 0.0122375 0.001778 
v 0.00177953 0.011943 0.001778 
v 0.00189265 0.0116591 0.001778 
v 0.00203581 0.0113891 0.001778 
v 0.00220731 0.0111361 0.001778 
v 0.00240516 0.0109032 0.001778 
v 0.00262703 0.010693 0.001778 
v 0.00287033 0.0105081 0.001778 
v 0.0031322 0.0103505 0.001778 
v 0.00340956 0.0102222 0.001778 
v 0.00369918 0.0101246 0.001778 
v 0.00399765 0.0100589 0.001778 
v 0.00430147 0.0100259 0.001778 
v 0.00460708 0.0100259 0.001778 
v 0.0049109 0.0100589 0.001778 
v 0.00520937 0.0101246 0.001778 
v 0.00549898 0.0102222 0.001778 
v 0.00577635 0.0103505 0.001778 
v 0.00603822 0.0105081 0.001778 
v 0.00628151 0.010693 0.001778 
v 0.00650339 0.0109032 0.001778 
v 0.00670123 0.0111361 0.001778 
v 0.00687274 0.0113891 0.001778 
v 0.00701589 0.0116591 0.001778 
v 0.00712901 0.011943 0.001778 
v 0.00721077 0.0122375 0.001778 
v 0.00726021 0.0125391 0.001778 
v 0.00727676 0.0128442 0.001778 
v 0.00445427 0.0128442 0.001778 
vn 0 0 -1 
vn 0.906308 0 -0.422618 
vn 0.900995 0.0979891 -0.422618 
vn 0.885119 0.194829 -0.422618 
vn 0.858865 0.289385 -0.422618 
vn 0.822543 0.380549 -0.422618 
vn 0.776576 0.46725 -0.422618 
vn 0.721505 0.548474 -0.422618 
vn 0.657975 0.623267 -0.422618 
vn 0.586731 0.690753 -0.422618 
vn 0.508608 0.750141 -0.422618 
vn 0.424522 0.800734 -0.422618 
vn 0.335459 0.841939 -0.422618 
vn 0.242463 0.873273 -0.422618 
vn 0.146624 0.894369 -0.422618 
vn 0.0490665 0.904979 -0.422618 
vn -0.0490665 0.904979 -0.422618 
vn -0.146624 0.894369 -0.422618 
vn -0.242463 0.873273 -0.422618 
vn -0.335459 0.841939 -0.422618 
vn -0.424522 0.800734 -0.422618 
vn -0.508608 0.750141 -0.422618 
vn -0.586731 0.690753 -0.422618 
vn -0.657975 0.623267 -0.422618 
vn -0.721505 0.548474 -0.422618 
vn -0.776576 0.46725 -0.422618 
vn -0.822543 0.380549 -0.422618 
vn -0.858865 0.289385 -0.422618 
vn -0.885119 0.194829 -0.422618 
vn -0.900995 0.0979891 -0.422618 
vn -0.906308 -1.88663e-16 -0.422618 
vn -0.900995 -0.0979891 -0.422618 
vn -0.885119 -0.194829 -0.422618 
vn -0.858865 -0.289385 -0.422618 
vn -0.822543 -0.380549 -0.422618 
vn -0.776576 -0.46725 -0.422618 
vn -0.721505 -0.548474 -0.422618 
vn -0.657975 -0.623267 -0.422618 
vn -0.586731 -0.690753 -0.422618 
vn -0.508608 -0.750141 -0.422618 
vn -0.424522 -0.800734 -0.422618 
vn -0.335459 -0.841939 -0.422618 
vn -0.242463 -0.873273 -0.422618 
vn -0.146624 -0.894369 -0.422618 
vn -0.0490665 -0.904979 -0.422618 
vn 0.0490665 -0.904979 -0.422618 
vn 0.146624 -0.894369 -0.422618 
vn 0.242463 -0.873273 -0.422618 
vn 0.335459 -0.841939 -0.422618 
vn 0.424522 -0.800734 -0.422618 
vn 0.508608 -0.750141 -0.422618 
vn 0.586731 -0.690753 -0.422618 
vn 0.657975 -0.623267 -0.422618 
vn 0.721505 -0.548474 -0.422618 
vn 0.776576 -0.46725 -0.422618 
vn 0.822543 -0.380549 -0.422618 
vn 0.858865 -0.289385 -0.422618 
vn 0.885119 -0.194829 -0.422618 
vn 0.900995 -0.0979891 -0.422618 
vn 0 0 1 
vn -0.906308 0 0.422618 
vn -0.900995 -0.0979891 0.422618 
vn -0.885119 -0.194829 0.422618 
vn -0.858865 -0.289385 0.422618 
vn -0.822543 -0.380549 0.422618 
vn -0.776576 -0.46725 0.422618 
vn -0.721505 -0.548474 0.422618 
vn -0.657975 -0.623267 0.422618 
vn -0.586731 -0.690753 0.422618 
vn -0.508608 -0.750141 0.422618 
vn -0.424522 -0.800734 0.422618 
vn -0.335459 -0.841939 0.422618 
vn -0.242463 -0.873273 0.422618 
vn -0.146624 -0.894369 0.422618 
vn -0.0490665 -0.904979 0.422618 
vn 0.0490665 -0.904979 0.422618 
vn 0.146624 -0.894369 0.422618 
vn 0.242463 -0.873273 0.422618 
vn 0.335459 -0.841939 0.422618 
vn 0.424522 -0.800734 0.422618 
vn 0.508608 -0.750141 0.422618 
vn 0.586731 -0.690753 0.422618 
vn 0.657975 -0.623267 0.422618 
vn 0.721505 -0.548474 0.422618 
vn 0.776576 -0.46725 0.422618 
vn 0.822543 -0.380549 0.422618 
vn 0.858865 -0.289385 0.422618 
vn 0.885119 -0.194829 0.422618 
vn 0.900995 -0.0979891 0.422618 
vn 0.906308 1.88663e-16 0.422618 
vn 0.900995 0.0979891 0.422618 
vn 0.885119 0.194829 0.422618 
vn 0.858865 0.289385 0.422618 
vn 0.822543 0.380549 0.422618 
vn 0.776576 0.46725 0.422618 
vn 0.721505 0.548474 0.422618 
vn 0.657975 0.623267 0.422618 
vn 0.586731 0.690753 0.422618 
vn 0.508608 0.750141 0.422618 
vn 0.424522 0.800734 0.422618 
vn 0.335459 0.841939 0.422618 
vn 0.242463 0.873273 0.422618 
vn 0.146624 0.894369 0.422618 
vn 0.0490665 0.904979 0.422618 
vn -0.0490665 0.904979 0.422618 
vn -0.146624 0.894369 0.422618 
vn -0.242463 0.873273 0.422618 
vn -0.335459 0.841939 0.422618 
vn -0.424522 0.800734 0.422618 
vn -0.508608 0.750141 0.422618 
vn -0.586731 0.690753 0.422618 
vn -0.657975 0.623267 0.422618 
vn -0.721505 0.548474 0.422618 
vn -0.776576 0.46725 0.422618 
vn -0.822543 0.380549 0.422618 
vn -0.858865 0.289385 0.422618 
vn -0.885119 0.194829 0.422618 
vn -0.900995 0.0979891 0.422618 
vn -0.906308 0 0.422618 
vn 0 0 1 
usemtl 0.917647_0.917647_0.917647_0.000000_0.000000
o mesh0
f 59//1 1//1 2//1 
f 2//1 3//1 59//1 
f 3//1 4//1 59//1 
f 4//1 5//1 59//1 
f 5//1 6//1 59//1 
f 6//1 7//1 59//1 
f 7//1 8//1 59//1 
f 8//1 9//1 59//1 
f 9//1 10//1 59//1 
f 10//1 11//1 59//1 
f 11//1 12//1 59//1 
f 12//1 13//1 59//1 
f 13//1 14//1 59//1 
f 14//1 15//1 59//1 
f 15//1 16//1 59//1 
f 16//1 17//1 59//1 
f 17//1 18//1 59//1 
f 18//1 19//1 59//1 
f 19//1 20//1 59//1 
f 20//1 21//1 59//1 
f 21//1 22//1 59//1 
f 22//1 23//1 59//1 
f 23//1 24//1 59//1 
f 24//1 25//1 59//1 
f 25//1 26//1 59//1 
f 26//1 27//1 59//1 
f 27//1 28//1 59//1 
f 28//1 29//1 59//1 
f 29//1 30//1 59//1 
f 30//1 31//1 59//1 
f 31//1 32//1 59//1 
f 32//1 33//1 59//1 
f 33//1 34//1 59//1 
f 34//1 35//1 59//1 
f 35//1 36//1 59//1 
f 36//1 37//1 59//1 
f 37//1 38//1 59//1 
f 38//1 39//1 59//1 
f 39//1 40//1 59//1 
f 40//1 41//1 59//1 
f 41//1 42//1 59//1 
f 42//1 43//1 59//1 
f 43//1 44//1 59//1 
f 44//1 45//1 59//1 
f 45//1 46//1 59//1 
f 46//1 47//1 59//1 
f 47//1 48//1 59//1 
f 48//1 49//1 59//1 
f 49//1 50//1 59//1 
f 50//1 51//1 59//1 
f 51//1 52//1 59//1 
f 52//1 53//1 59//1 
f 53//1 54//1 59//1 
f 54//1 55//1 59//1 
f 55//1 56//1 59//1 
f 56//1 57//1 59//1 
f 57//1 58//1 59//1 
f 58//1 1//1 59//1 
o mesh1
f 60//2 58//2 57//3 
f 61//3 57//3 56//4 
f 62//4 56//4 55//5 
f 63//5 55//5 54//6 
f 64//6 54//6 53//7 
f 65//7 53//7 52//8 
f 66//8 52//8 51//9 
f 67//9 51//9 50//10 
f 68//10 50//10 49//11 
f 69//11 49//11 48//12 
f 70//12 48//12 47//13 
f 71//13 47//13 46//14 
f 72//14 46//14 45//15 
f 73//15 45//15 44//16 
f 74//16 44//16 43//17 
f 75//17 43//17 42//18 
f 76//18 42//18 41//19 
f 77//19 41//19 40//20 
f 78//20 40//20 39//21 
f 79//21 39//21 38//22 
f 80//22 38//22 37//23 
f 81//23 37//23 36//24 
f 82//24 36//24 35//25 
f 83//25 35//25 34//26 
f 84//26 34//26 33//27 
f 85//27 33//27 32//28 
f 86//28 32//28 31//29 
f 87//29 31//29 30//30 
f 88//30 30//30 29//31 
f 89//31 29//31 28//32 
f 90//32 28//32 27//33 
f 91//33 27//33 26//34 
f 92//34 26//34 25//35 
f 93//35 25//35 24//36 
f 94//36 24//36 23//37 
f 95//37 23//37 22//38 
f 96//38 22//38 21//39 
f 97//39 21//39 20//40 
f 98//40 20//40 19//41 
f 99//41 19//41 18//42 
f 100//42 18//42 17//43 
f 101//43 17//43 16//44 
f 102//44 16//44 15//45 
f 103//45 15//45 14//46 
f 104//46 14//46 13//47 
f 105//47 13//47 12//48 
f 106//48 12//48 11//49 
f 107//49 11//49 10//50 
f 108//50 10//50 9//51 
f 109//51 9//51 8//52 
f 110//52 8//52 7//53 
f 111//53 7//53 6//54 
f 112//54 6//54 5//55 
f 113//55 5//55 4//56 
f 114//56 4//56 3//57 
f 115//57 3//57 2//58 
f 116//58 2//58 1//59 
f 117//59 1//59 58//2 
f 58//2 60//2 117//59 
f 1//59 117//59 116//58 
f 2//58 116//58 115//57 
f 3//57 115//57 114//56 
f 4//56 114//56 113//55 
f 5//55 113//55 112//54 
f 6//54 112//54 111//53 
f 7//53 111//53 110//52 
f 8//52 110//52 109//51 
f 9//51 109//51 108//50 
f 10//50 108//50 107//49 
f 11//49 107//49 106//48 
f 12//48 106//48 105//47 
f 13//47 105//47 104//46 
f 14//46 104//46 103//45 
f 15//45 103//45 102//44 
f 16//44 102//44 101//43 
f 17//43 101//43 100//42 
f 18//42 100//42 99//41 
f 19//41 99//41 98//40 
f 20//40 98//40 97//39 
f 21//39 97//39 96//38 
f 22//38 96//38 95//37 
f 23//37 95//37 94//36 
f 24//36 94//36 93//35 
f 25//35 93//35 92//34 
f 26//34 92//34 91//33 
f 27//33 91//33 90//32 
f 28//32 90//32 89//31 
f 29//31 89//31 88//30 
f 30//30 88//30 87//29 
f 31//29 87//29 86//28 
f 32//28 86//28 85//27 
f 33//27 85//27 84//26 
f 34//26 84//26 83//25 
f 35//25 83//25 82//24 
f 36//24 82//24 81//23 
f 37//23 81//23 80//22 
f 38//22 80//22 79//21 
f 39//21 79//21 78//20 
f 40//20 78//20 77//19 
f 41//19 77//19 76//18 
f 42//18 76//18 75//17 
f 43//17 75//17 74//16 
f 44//16 74//16 73//15 
f 45//15 73//15 72//14 
f 46//14 72//14 71//13 
f 47//13 71//13 70//12 
f 48//12 70//12 69//11 
f 49//11 69//11 68//10 
f 50//10 68//10 67//9 
f 51//9 67//9 66//8 
f 52//8 66//8 65//7 
f 53//7 65//7 64//6 
f 54//6 64//6 63//5 
f 55//5 63//5 62//4 
f 56//4 62//4 61//3 
f 57//3 61//3 60//2 
o mesh2
f 76//60 118//60 119//60 
f 76//60 77//60 120//60 
f 72//60 121//60 122//60 
f 72//60 73//60 123//60 
f 120//60 118//60 76//60 
f 78//60 124//60 120//60 
f 79//60 125//60 124//60 
f 80//60 126//60 125//60 
f 81//60 127//60 126//60 
f 81//60 82//60 128//60 
f 123//60 121//60 72//60 
f 73//60 74//60 129//60 
f 120//60 77//60 78//60 
f 125//60 79//60 80//60 
f 128//60 127//60 81//60 
f 82//60 83//60 130//60 
f 83//60 84//60 131//60 
f 84//60 85//60 132//60 
f 90//60 133//60 134//60 
f 90//60 91//60 135//60 
f 93//60 136//60 137//60 
f 94//60 138//60 136//60 
f 129//60 123//60 73//60 
f 74//60 75//60 119//60 
f 124//60 78//60 79//60 
f 130//60 128//60 82//60 
f 132//60 131//60 84//60 
f 86//60 139//60 132//60 
f 87//60 140//60 139//60 
f 87//60 88//60 141//60 
f 89//60 134//60 141//60 
f 135//60 133//60 90//60 
f 136//60 93//60 94//60 
f 95//60 142//60 138//60 
f 96//60 143//60 142//60 
f 96//60 97//60 144//60 
f 101//60 102//60 145//60 
f 102//60 103//60 146//60 
f 119//60 129//60 74//60 
f 126//60 80//60 81//60 
f 132//60 85//60 86//60 
f 141//60 140//60 87//60 
f 134//60 89//60 90//60 
f 91//60 92//60 137//60 
f 138//60 94//60 95//60 
f 144//60 143//60 96//60 
f 101//60 147//60 148//60 
f 146//60 145//60 102//60 
f 119//60 75//60 76//60 
f 139//60 86//60 87//60 
f 137//60 135//60 91//60 
f 142//60 95//60 96//60 
f 97//60 98//60 149//60 
f 99//60 150//60 149//60 
f 100//60 148//60 150//60 
f 145//60 147//60 101//60 
f 104//60 151//60 146//60 
f 104//60 105//60 152//60 
f 131//60 130//60 83//60 
f 137//60 92//60 93//60 
f 149//60 98//60 99//60 
f 148//60 100//60 101//60 
f 152//60 151//60 104//60 
f 105//60 106//60 153//60 
f 106//60 107//60 154//60 
f 107//60 108//60 155//60 
f 70//60 156//60 157//60 
f 70//60 71//60 122//60 
f 141//60 88//60 89//60 
f 150//60 99//60 100//60 
f 153//60 152//60 105//60 
f 155//60 154//60 107//60 
f 111//60 158//60 159//60 
f 112//60 160//60 158//60 
f 113//60 161//60 160//60 
f 113//60 114//60 162//60 
f 64//60 163//60 164//60 
f 65//60 165//60 163//60 
f 67//60 166//60 167//60 
f 67//60 68//60 168//60 
f 69//60 157//60 168//60 
f 122//60 156//60 70//60 
f 149//60 144//60 97//60 
f 154//60 153//60 106//60 
f 109//60 169//60 155//60 
f 109//60 110//60 159//60 
f 158//60 111//60 112//60 
f 162//60 161//60 113//60 
f 115//60 170//60 162//60 
f 115//60 116//60 171//60 
f 62//60 172//60 173//60 
f 63//60 164//60 172//60 
f 163//60 64//60 65//60 
f 65//60 66//60 167//60 
f 168//60 166//60 67//60 
f 157//60 69//60 70//60 
f 146//60 103//60 104//60 
f 159//60 169//60 109//60 
f 160//60 112//60 113//60 
f 171//60 170//60 115//60 
f 117//60 174//60 171//60 
f 60//60 175//60 174//60 
f 172//60 62//60 63//60 
f 167//60 165//60 65//60 
f 168//60 68//60 69//60 
f 155//60 108//60 109//60 
f 162//60 114//60 115//60 
f 174//60 117//60 60//60 
f 61//60 173//60 175//60 
f 164//60 63//60 64//60 
f 122//60 71//60 72//60 
f 171//60 116//60 117//60 
f 173//60 61//60 62//60 
f 159//60 110//60 111//60 
f 167//60 66//60 67//60 
f 175//60 60//60 61//60 
o mesh3
f 175//61 173//62 176//62 
f 173//62 172//63 177//63 
f 172//63 164//64 178//64 
f 164//64 163//65 179//65 
f 163//65 165//66 180//66 
f 165//66 167//67 181//67 
f 167//67 166//68 182//68 
f 166//68 168//69 183//69 
f 168//69 157//70 184//70 
f 157//70 156//71 185//71 
f 156//71 122//72 186//72 
f 122//72 121//73 187//73 
f 121//73 123//74 188//74 
f 123//74 129//75 189//75 
f 129//75 119//76 190//76 
f 119//76 118//77 191//77 
f 118//77 120//78 192//78 
f 120//78 124//79 193//79 
f 124//79 125//80 194//80 
f 125//80 126//81 195//81 
f 126//81 127//82 196//82 
f 127//82 128//83 197//83 
f 128//83 130//84 198//84 
f 130//84 131//85 199//85 
f 131//85 132//86 200//86 
f 132//86 139//87 201//87 
f 139//87 140//88 202//88 
f 140//88 141//89 203//89 
f 141//89 134//90 204//90 
f 134//90 133//91 205//91 
f 133//91 135//92 206//92 
f 135//92 137//93 207//93 
f 137//93 136//94 208//94 
f 136//94 138//95 209//95 
f 138//95 142//96 210//96 
f 142//96 143//97 211//97 
f 143//97 144//98 212//98 
f 144//98 149//99 213//99 
f 149//99 150//100 214//100 
f 150//100 148//101 215//101 
f 148//101 147//102 216//102 
f 147//102 145//103 217//103 
f 145//103 146//104 218//104 
f 146//104 151//105 219//105 
f 151//105 152//106 220//106 
f 152//106 153//107 221//107 
f 153//107 154//108 222//108 
f 154//108 155//109 223//109 
f 155//109 169//110 224//110 
f 169//110 159//111 225//111 
f 159//111 158//112 226//112 
f 158//112 160//113 227//113 
f 160//113 161//114 228//114 
f 161//114 162//115 229//115 
f 162//115 170//116 230//116 
f 170//116 171//117 231//117 
f 171//117 174//118 232//118 
f 174//118 175//61 233//119 
f 233//119 232//118 174//118 
f 232//118 231//117 171//117 
f 231//117 230//116 170//116 
f 230//116 229//115 162//115 
f 229//115 228//114 161//114 
f 228//114 227//113 160//113 
f 227//113 226//112 158//112 
f 226//112 225//111 159//111 
f 225//111 224//110 169//110 
f 224//110 223//109 155//109 
f 223//109 222//108 154//108 
f 222//108 221//107 153//107 
f 221//107 220//106 152//106 
f 220//106 219//105 151//105 
f 219//105 218//104 146//104 
f 218//104 217//103 145//103 
f 217//103 216//102 147//102 
f 216//102 215//101 148//101 
f 215//101 214//100 150//100 
f 214//100 213//99 149//99 
f 213//99 212//98 144//98 
f 212//98 211//97 143//97 
f 211//97 210//96 142//96 
f 210//96 209//95 138//95 
f 209//95 208//94 136//94 
f 208//94 207//93 137//93 
f 207//93 206//92 135//92 
f 206//92 205//91 133//91 
f 205//91 204//90 134//90 
f 204//90 203//89 141//89 
f 203//89 202//88 140//88 
f 202//88 201//87 139//87 
f 201//87 200//86 132//86 
f 200//86 199//85 131//85 
f 199//85 198//84 130//84 
f 198//84 197//83 128//83 
f 197//83 196//82 127//82 
f 196//82 195//81 126//81 
f 195//81 194//80 125//80 
f 194//80 193//79 124//79 
f 193//79 192//78 120//78 
f 192//78 191//77 118//77 
f 191//77 190//76 119//76 
f 190//76 189//75 129//75 
f 189//75 188//74 123//74 
f 188//74 187//73 121//73 
f 187//73 186//72 122//72 
f 186//72 185//71 156//71 
f 185//71 184//70 157//70 
f 184//70 183//69 168//69 
f 183//69 182//68 166//68 
f 182//68 181//67 167//67 
f 181//67 180//66 165//66 
f 180//66 179//65 163//65 
f 179//65 178//64 164//64 
f 178//64 177//63 172//63 
f 177//63 176//62 173//62 
f 176//62 233//119 175//61 
o mesh4
f 234//120 176//120 177//120 
f 177//120 178//120 234//120 
f 178//120 179//120 234//120 
f 179//120 180//120 234//120 
f 180//120 181//120 234//120 
f 181//120 182//120 234//120 
f 182//120 183//120 234//120 
f 183//120 184//120 234//120 
f 184//120 185//120 234//120 
f 185//120 186//120 234//120 
f 186//120 187//120 234//120 
f 187//120 188//120 234//120 
f 188//120 189//120 234//120 
f 189//120 190//120 234//120 
f 190//120 191//120 234//120 
f 191//120 192//120 234//120 
f 192//120 193//120 234//120 
f 193//120 194//120 234//120 
f 194//120 195//120 234//120 
f 195//120 196//120 234//120 
f 196//120 197//120 234//120 
f 197//120 198//120 234//120 
f 198//120 199//120 234//120 
f 199//120 200//120 234//120 
f 200//120 201//120 234//120 
f 201//120 202//120 234//120 
f 202//120 203//120 234//120 
f 203//120 204//120 234//120 
f 204//120 205//120 234//120 
f 205//120 206//120 234//120 
f 206//120 207//120 234//120 
f 207//120 208//120 234//120 
f 208//120 209//120 234//120 
f 209//120 210//120 234//120 
f 210//120 211//120 234//120 
f 211//120 212//120 234//120 
f 212//120 213//120 234//120 
f 213//120 214//120 234//120 
f 214//120 215//120 234//120 
f 215//120 216//120 234//120 
f 216//120 217//120 234//120 
f 217//120 218//120 234//120 
f 218//120 219//120 234//120 
f 219//120 220//120 234//120 
f 220//120 221//120 234//120 
f 221//120 222//120 234//120 
f 222//120 223//120 234//120 
f 223//120 224//120 234//120 
f 224//120 225//120 234//120 
f 225//120 226//120 234//120 
f 226//120 227//120 234//120 
f 227//120 228//120 234//120 
f 228//120 229//120 234//120 
f 229//120 230//120 234//120 
f 230//120 231//120 234//120 
f 231//120 232//120 234//120 
f 232//120 233//120 234//120 
f 233//120 176//120 234//120 
