# File units = meters
mtllib dishwasher3.mtl
g Part 27
v -0.143316 -0.044142 0.0038354 
v -0.143316 -0.044142 0.0051054 
v -0.120046 -0.044142 0.0051054 
v -0.120046 -0.044142 0.0038354 
v -0.143316 -0.0773784 0.0038354 
v -0.143316 -0.0773784 0.0051054 
v -0.120046 -0.0773784 0.0038354 
v -0.120046 -0.0773784 0.0051054 
v -0.121158 -0.0540605 0.0038354 
v -0.122235 -0.0540605 0.0038354 
v -0.121158 -0.0660278 0.0038354 
v -0.121158 -0.0550285 0.0038354 
v -0.122235 -0.0550285 0.0038354 
v -0.121158 -0.0669106 0.0038354 
v -0.122235 -0.0669106 0.0038354 
v -0.122235 -0.0660278 0.0038354 
v -0.121158 -0.0669106 0.0024892 
v -0.122235 -0.0669106 0.0024892 
v -0.122235 -0.0540605 0.0024892 
v -0.121158 -0.0540605 0.0024892 
v -0.121158 -0.0660278 0.0030068 
v -0.121158 -0.0550285 0.0030068 
v -0.122235 -0.0550285 0.0030068 
v -0.122235 -0.0660278 0.0030068 
vn 0 1 0 
vn -1 0 -6.12323e-17 
vn 0 -1 0 
vn -6.12323e-17 0 1 
vn 1 0 6.12323e-17 
vn 6.12323e-17 0 -1 
vn 0 -1 0 
vn 0 1 0 
vn 6.12323e-17 0 -1 
vn 1 0 6.12323e-17 
vn -1 0 -6.12323e-17 
vn 0 1 0 
vn -6.12323e-17 0 1 
vn 0 -1 0 
usemtl 0.301961_0.301961_0.301961_0.000000_0.000000
o mesh0
f 1//1 2//1 3//1 
f 3//1 4//1 1//1 
o mesh1
f 5//2 6//2 2//2 
f 2//2 1//2 5//2 
o mesh2
f 5//3 7//3 8//3 
f 8//3 6//3 5//3 
o mesh3
f 2//4 6//4 8//4 
f 8//4 3//4 2//4 
o mesh4
f 8//5 7//5 4//5 
f 4//5 3//5 8//5 
o mesh5
f 4//6 9//6 10//6 
f 4//6 11//6 12//6 
f 12//6 9//6 4//6 
f 13//6 12//6 11//6 
f 7//6 14//6 11//6 
f 7//6 5//6 15//6 
f 11//6 16//6 13//6 
f 1//6 10//6 13//6 
f 15//6 14//6 7//6 
f 5//6 1//6 16//6 
f 13//6 16//6 1//6 
f 16//6 15//6 5//6 
f 11//6 4//6 7//6 
f 10//6 1//6 4//6 
o mesh6
f 17//7 14//7 15//7 
f 15//7 18//7 17//7 
o mesh7
f 19//8 10//8 9//8 
f 9//8 20//8 19//8 
o mesh8
f 19//9 20//9 17//9 
f 17//9 18//9 19//9 
o mesh9
f 14//10 17//10 21//10 
f 17//10 20//10 22//10 
f 22//10 21//10 17//10 
f 9//10 12//10 22//10 
f 22//10 20//10 9//10 
f 21//10 11//10 14//10 
o mesh10
f 10//11 19//11 23//11 
f 18//11 24//11 23//11 
f 23//11 19//11 18//11 
f 15//11 16//11 24//11 
f 24//11 18//11 15//11 
f 23//11 13//11 10//11 
o mesh11
f 24//12 16//12 11//12 
f 11//12 21//12 24//12 
o mesh12
f 23//13 24//13 21//13 
f 21//13 22//13 23//13 
o mesh13
f 12//14 13//14 23//14 
f 23//14 22//14 12//14 
